<svg width="452" height="160" viewBox="0 0 452 160" fill="none" xmlns="http://www.w3.org/2000/svg">
<path d="M45.8554 35.3286C45.8554 33.6155 46.5398 31.9023 47.5664 30.8744C48.593 29.8465 50.3041 29.1613 52.3573 29.1613C54.4105 29.1613 55.7793 29.8465 56.8059 30.8744C57.8326 31.9023 58.517 33.6155 58.517 35.3286C58.517 37.0418 57.8326 38.4123 56.8059 39.7828C55.7793 40.8107 54.0683 41.496 52.3573 41.496C50.6463 41.496 48.9352 40.8107 47.9086 39.7828C46.5398 38.7549 45.8554 37.0418 45.8554 35.3286ZM56.4637 49.3764V101.114H47.5664V49.3764H56.4637Z" fill="white"></path>
<path d="M103.688 93.2331V100.428C102.661 101.114 101.292 101.456 99.9237 101.799C98.5548 102.141 96.8438 102.141 95.1328 102.141C89.9997 102.141 86.2355 100.771 83.8401 98.0299C81.4446 95.2889 80.418 91.1773 80.418 85.3526V56.9143H68.4409V49.3765H80.418V35.6713L88.9731 30.5318V49.3765H104.03V56.9143H88.9731V84.3247C88.9731 88.0937 89.6575 90.8347 91.0263 92.2052C92.3952 93.5757 94.4484 94.261 97.186 94.261C98.5548 94.261 99.5815 94.261 100.608 93.9184C101.635 93.9184 102.661 93.5757 103.688 93.2331Z" fill="white"></path>
<path d="M146.121 93.2331V100.428C145.095 101.114 143.726 101.456 142.357 101.799C140.988 102.141 139.277 102.141 137.566 102.141C132.433 102.141 128.669 100.771 126.273 98.0299C123.878 95.2889 122.851 91.1773 122.851 85.3526V56.9143H110.874V49.3765H122.851V35.6713L131.407 30.5318V49.3765H146.464V56.9143H131.407V84.3247C131.407 88.0937 132.091 90.8347 133.46 92.2052C134.829 93.5757 136.882 94.261 139.619 94.261C140.988 94.261 142.015 94.261 143.041 93.9184C144.068 93.9184 145.095 93.5757 146.121 93.2331Z" fill="white"></path>
<path d="M166.311 76.4442V101.114H157.414V49.3765H166.311V62.739C168.022 57.9422 170.418 54.5159 173.498 52.1175C176.577 49.7191 180.342 48.3486 184.448 48.3486C189.239 48.3486 193.003 49.7191 195.741 52.1175C198.478 54.5159 200.532 57.9422 201.216 62.3964C202.927 57.9422 205.323 54.1733 208.745 51.7749C212.167 49.3765 215.931 48.3486 220.037 48.3486C225.855 48.3486 230.303 50.4043 233.383 54.5159C236.463 58.6275 237.832 63.7669 237.832 69.9343V101.114H228.935V71.99C228.935 67.1932 227.908 63.4243 226.197 60.3406C224.486 57.257 221.064 55.8864 216.615 55.8864C212.167 55.8864 208.745 57.5996 206.007 61.0259C203.269 64.4522 201.9 69.5916 201.9 76.1016V101.114H193.345V71.6474C193.345 66.8506 192.319 63.0817 190.608 60.3406C188.897 57.5996 185.475 55.8864 181.026 55.8864C176.577 55.8864 173.155 57.5996 170.418 61.0259C167.68 64.7948 166.311 69.9343 166.311 76.4442Z" fill="white"></path>
<path d="M264.524 102.141C259.049 102.141 254.942 100.771 252.205 98.3726C249.467 95.9742 248.098 92.8905 248.098 89.1216C248.098 86.0379 248.783 83.6395 249.809 81.9263C251.178 80.2132 252.547 78.5 254.942 77.1295C256.653 76.1016 259.049 75.0737 261.444 74.3885C263.84 73.7032 267.262 72.6753 271.026 71.9901C275.817 70.9622 279.581 69.9343 281.976 68.9064C284.372 67.8785 285.398 66.1653 285.398 63.7669C285.398 61.7112 284.372 59.6554 282.661 57.9422C280.95 56.2291 277.87 55.5438 273.421 55.5438C269.315 55.5438 265.893 56.5717 263.497 58.6275C261.102 60.6833 259.049 63.4243 257.338 67.1932L249.467 64.4522C251.52 59.3127 254.942 55.5438 259.049 52.8028C263.155 50.0617 268.288 48.6912 274.106 48.6912C280.608 48.6912 285.398 50.0617 288.82 53.1454C292.243 56.2291 293.954 60.3406 293.954 66.1653V87.4084C293.954 90.1494 294.296 92.2052 295.322 93.2331C296.349 94.261 297.718 94.9463 299.429 94.9463C300.113 94.9463 300.798 94.9463 301.482 94.6036C302.166 94.6036 302.509 94.261 303.193 94.261V100.428C302.509 100.771 301.482 101.114 300.455 101.456C299.429 101.799 298.06 101.799 296.691 101.799C292.927 101.799 289.847 100.771 288.136 98.7152C286.425 96.6594 285.398 93.5757 285.398 89.1216V86.3805C283.687 91.1773 280.95 94.6036 277.186 97.3447C273.763 100.771 269.315 102.141 264.524 102.141ZM267.946 95.2889C269.999 95.2889 272.395 94.9463 274.448 93.9184C276.501 92.8905 278.554 91.52 280.265 90.1494C281.976 88.4363 283.345 86.3805 284.372 83.9821C285.398 81.5837 286.083 78.8427 286.083 76.1016V71.9901C285.056 73.3606 283.687 74.3885 281.634 75.4164C279.581 76.4442 276.159 77.1295 272.395 78.1574C267.604 79.1853 263.84 80.5558 261.444 81.9263C259.049 83.2968 257.68 85.6953 257.68 88.7789C257.68 90.8347 258.706 92.5479 260.417 93.9184C261.786 94.6036 264.182 95.2889 267.946 95.2889Z" fill="white"></path>
<path d="M313.117 101.114V49.3765H322.014V62.739C323.725 57.9422 326.121 54.5159 329.543 52.1175C332.965 49.7191 336.729 48.3486 341.178 48.3486C347.68 48.3486 352.128 50.4043 355.55 54.5159C358.972 58.6275 360.341 63.7669 360.341 70.2769V101.114H351.444V72.3327C351.444 67.5358 350.417 63.4243 348.364 60.6833C346.311 57.5996 342.889 56.2291 337.756 56.2291C333.307 56.2291 329.543 57.9422 326.463 61.3685C323.725 64.7948 322.014 69.9343 322.014 76.4442V101.114H313.117Z" fill="white"></path>
<path d="M35.247 49.3765H0V101.114H8.55511V58.2849H35.247V49.3765Z" fill="white"></path>
<path d="M199.99 152.774C197.937 152.774 196.568 152.431 195.542 151.404C194.515 150.376 194.173 149.348 194.173 147.977C194.173 146.949 194.515 145.921 194.857 145.236C195.199 144.551 195.884 143.866 196.568 143.523C197.253 143.18 197.937 142.838 198.964 142.495C199.99 142.153 201.017 141.81 202.386 141.467C204.097 141.125 205.466 140.782 206.492 140.439C207.519 140.097 207.861 139.412 207.861 138.726C207.861 138.041 207.519 137.356 206.834 136.67C206.15 135.985 205.123 135.643 203.412 135.643C202.043 135.643 200.675 135.985 199.648 136.67C198.621 137.356 197.937 138.384 197.595 139.754L194.515 138.726C195.199 137.013 196.568 135.3 197.937 134.272C199.306 133.244 201.359 132.902 203.412 132.902C205.808 132.902 207.519 133.587 208.888 134.615C210.256 135.643 210.941 137.356 210.941 139.412V147.292C210.941 148.32 211.283 149.005 211.625 149.348C211.967 149.69 212.652 150.033 212.994 150.033C213.336 150.033 213.336 150.033 213.678 150.033C214.021 150.033 214.021 150.033 214.363 150.033V152.431C214.021 152.431 213.678 152.774 213.336 152.774C212.994 152.774 212.31 152.774 211.967 152.774C210.599 152.774 209.572 152.431 208.888 151.746C208.203 151.061 207.861 150.033 207.861 148.32V147.292C207.177 149.005 206.15 150.376 204.781 151.404C203.07 152.431 201.701 152.774 199.99 152.774ZM201.017 150.376C201.701 150.376 202.728 150.376 203.412 150.033C204.097 149.69 204.781 149.348 205.466 148.663C206.15 147.977 206.492 147.292 206.834 146.264C207.177 145.236 207.519 144.551 207.519 143.18V141.467C207.177 141.81 206.492 142.495 205.808 142.838C205.123 143.18 203.755 143.523 202.386 143.866C200.675 144.208 199.306 144.551 198.279 145.236C197.253 145.921 196.91 146.607 196.91 147.635C196.91 148.32 197.253 149.005 197.937 149.69C198.964 150.033 199.648 150.376 201.017 150.376Z" fill="white"></path>
<path d="M223.26 152.431V133.587H226.34V138.384C227.024 136.67 228.051 135.3 229.078 134.615C230.446 133.587 231.815 133.244 233.526 133.244C235.922 133.244 237.633 133.929 238.659 135.643C239.686 137.013 240.37 139.069 240.37 141.467V152.774H237.291V142.153C237.291 140.439 236.948 139.069 236.264 137.698C235.579 136.67 234.211 135.985 232.5 135.985C230.789 135.985 229.42 136.67 228.393 138.041C227.024 139.069 226.34 140.782 226.34 143.523V152.774L223.26 152.431Z" fill="white"></path>
<path d="M256.454 152.774C254.401 152.774 253.032 152.431 252.005 151.404C250.979 150.376 250.637 149.348 250.637 147.977C250.637 146.949 250.979 145.921 251.321 145.236C251.663 144.551 252.348 143.866 253.032 143.523C253.716 143.18 254.401 142.838 255.427 142.495C256.454 142.153 257.481 141.81 258.849 141.467C260.56 141.125 261.929 140.782 262.956 140.439C263.982 140.097 264.325 139.412 264.325 138.726C264.325 138.041 263.983 137.356 263.298 136.67C262.614 135.985 261.587 135.643 259.876 135.643C258.507 135.643 257.138 135.985 256.112 136.67C255.085 137.356 254.401 138.384 254.059 139.754L250.979 138.726C251.663 137.013 253.032 135.3 254.401 134.272C255.77 133.244 257.823 132.902 259.876 132.902C262.271 132.902 263.983 133.587 265.351 134.615C266.72 135.643 267.405 137.356 267.405 139.412V147.292C267.405 148.32 267.747 149.005 268.089 149.348C268.431 149.69 269.116 150.033 269.458 150.033C269.8 150.033 269.8 150.033 270.142 150.033C270.484 150.033 270.484 150.033 270.827 150.033V152.431C270.484 152.431 270.142 152.774 269.8 152.774C269.458 152.774 268.773 152.774 268.431 152.774C267.062 152.774 266.036 152.431 265.351 151.746C264.667 151.061 264.325 150.033 264.325 148.32V147.292C263.64 149.005 262.614 150.376 261.245 151.404C259.876 152.431 258.165 152.774 256.454 152.774ZM257.823 150.376C258.507 150.376 259.534 150.376 260.218 150.033C260.903 149.69 261.587 149.348 262.271 148.663C262.956 147.977 263.298 147.292 263.64 146.264C263.983 145.236 264.325 144.551 264.325 143.18V141.467C263.983 141.81 263.298 142.495 262.614 142.838C261.929 143.18 260.56 143.523 259.192 143.866C257.481 144.208 256.112 144.551 255.085 145.236C254.059 145.921 253.716 146.607 253.716 147.635C253.716 148.32 254.059 149.005 254.743 149.69C255.427 150.033 256.454 150.376 257.823 150.376Z" fill="white"></path>
<path d="M283.146 125.364V152.431H279.724V125.364H283.146Z" fill="white"></path>
<path d="M311.891 133.587L300.598 159.969H297.176L300.598 152.432L292.728 133.929H296.15L301.283 146.607L302.309 149.69L303.336 146.607L308.469 133.929H311.891V133.587Z" fill="white"></path>
<path d="M333.108 149.348V152.089C332.766 152.431 332.081 152.431 331.739 152.431C331.055 152.431 330.712 152.431 330.028 152.431C327.975 152.431 326.606 152.089 325.921 151.061C325.237 150.033 324.553 148.663 324.553 146.607V135.985H320.104V133.244H324.553V128.105L327.632 126.392V133.244H333.108V135.985H327.632V145.922C327.632 147.292 327.975 148.32 328.317 148.663C328.659 149.348 329.686 149.348 330.712 149.348C331.055 149.348 331.739 149.348 332.081 149.348C332.081 149.69 332.766 149.69 333.108 149.348Z" fill="white"></path>
<path d="M342.689 128.447C342.689 127.762 343.032 127.419 343.374 126.734C343.716 126.392 344.4 126.049 345.085 126.049C345.769 126.049 346.454 126.392 346.796 126.734C347.138 127.077 347.48 127.762 347.48 128.447C347.48 129.133 347.138 129.475 346.796 130.161C346.111 130.503 345.427 130.503 344.743 130.503C344.058 130.503 343.374 130.161 343.032 129.818C342.689 129.475 342.689 129.133 342.689 128.447ZM346.454 133.587V152.431H343.032V133.587H346.454Z" fill="white"></path>
<path d="M375.199 140.097L371.777 140.782C371.435 139.411 371.092 138.041 370.066 137.013C369.039 135.985 368.013 135.643 366.302 135.643C365.275 135.643 364.248 135.985 363.564 136.328C362.88 136.67 362.195 137.356 361.511 137.698C360.826 138.041 360.484 139.069 360.484 140.097C360.142 141.125 360.142 141.81 360.142 142.838C360.142 144.894 360.484 146.607 361.511 147.977C362.537 149.348 363.906 150.033 366.302 150.033C368.013 150.033 369.381 149.69 370.066 148.662C371.092 147.635 371.435 146.607 371.777 144.894L375.199 145.579C374.857 146.607 374.514 147.635 374.172 148.32C373.83 149.005 373.146 150.033 372.461 150.376C371.777 151.061 370.75 151.404 369.724 151.746C368.697 152.089 367.67 152.431 366.302 152.431C364.591 152.431 363.222 152.089 362.195 151.746C361.168 151.404 360.142 150.718 359.115 149.69C358.431 148.662 357.746 147.635 357.404 146.607C357.062 145.579 356.72 144.208 356.72 142.838C356.72 141.467 357.062 140.097 357.404 139.069C357.746 138.041 358.431 136.67 359.115 135.985C359.8 134.957 360.826 134.272 362.195 133.929C363.222 133.244 364.591 133.244 366.302 133.244C367.67 133.244 368.697 133.587 369.724 133.929C370.75 134.272 371.435 134.957 372.461 135.3C373.146 135.985 373.83 136.67 374.172 137.698C374.857 138.384 375.199 139.411 375.199 140.097Z" fill="white"></path>
<path d="M384.096 149.005L386.492 146.949C387.176 147.977 388.203 149.005 389.229 149.348C390.256 149.69 391.625 150.376 392.993 150.376C394.362 150.376 395.731 150.033 396.416 149.348C397.1 148.662 397.442 147.977 397.442 147.292C397.442 146.264 396.758 145.579 395.731 145.236C394.362 144.894 392.994 144.551 390.94 144.208C388.887 143.866 387.518 143.523 386.149 142.495C385.123 141.81 384.438 140.439 384.438 139.069C384.438 137.356 385.123 135.985 386.492 134.957C387.86 133.929 389.571 133.244 391.967 133.244C394.02 133.244 395.731 133.587 397.1 134.272C398.469 134.957 399.838 135.985 400.864 137.356L398.469 139.411C397.784 138.384 396.758 137.356 395.731 136.67C394.705 135.985 393.678 135.985 391.967 135.985C390.598 135.985 389.229 136.328 388.887 137.013C388.203 137.698 387.86 138.384 387.86 139.069C387.86 140.097 388.203 140.782 389.229 141.125C390.256 141.467 391.625 141.81 393.336 142.153C394.362 142.153 395.389 142.495 396.073 142.838C397.1 143.18 397.784 143.523 398.469 143.866C399.153 144.208 399.495 144.894 399.838 145.236C400.18 145.921 400.522 146.607 400.522 147.635C400.522 148.32 400.522 149.348 400.18 150.033C399.838 150.718 399.495 151.404 398.811 151.746C398.127 152.431 397.442 152.774 396.416 153.117C395.389 153.459 394.362 153.459 393.336 153.459C391.282 153.459 389.229 153.117 387.86 152.431C386.149 151.061 385.123 150.033 384.096 149.005Z" fill="white"></path>
<rect x="386" width="64" height="64" fill="white"></rect>
<rect x="386" y="43.8039" width="21.902" height="21.902" fill="#4F60FF"></rect>
<rect x="407.902" y="21.902" width="21.902" height="43.8039" fill="#4F60FF"></rect>
<rect x="429.804" y="-3.05176e-05" width="21.902" height="65.7059" fill="#4F60FF"></rect>
</svg>