<svg width="1345" height="752" viewBox="0 0 1345 752" fill="none" xmlns="http://www.w3.org/2000/svg" xmlns:xlink="http://www.w3.org/1999/xlink">
<rect width="1345" height="752" rx="40" fill="black"></rect>
<rect width="1345" height="752" rx="40" fill="#1F2433"></rect>
<line x1="1216" y1="391" x2="116" y2="391" stroke="white" stroke-width="2"></line>
<path d="M522.323 330.396V215.914H561.984C567.094 215.914 571.915 216.782 576.447 218.485C580.978 220.189 584.932 222.599 588.371 225.685C591.777 228.77 594.477 232.466 596.438 236.805C598.398 241.112 599.395 245.901 599.395 251.107C599.395 256.314 598.398 260.942 596.438 265.249C594.477 269.556 591.777 273.284 588.371 276.369C584.964 279.455 580.978 281.865 576.447 283.569C571.915 285.272 567.094 286.14 561.984 286.14H540.386V330.429H522.323V330.396ZM562.466 268.849C565.455 268.849 568.122 268.334 570.469 267.338C572.815 266.342 574.775 264.96 576.382 263.256C577.989 261.553 579.211 259.624 580.046 257.503C580.914 255.382 581.332 253.228 581.332 251.107C581.332 248.857 580.914 246.672 580.046 244.551C579.179 242.43 577.957 240.533 576.382 238.862C574.775 237.223 572.815 235.841 570.469 234.78C568.122 233.72 565.455 233.173 562.466 233.173H540.386V268.816H562.466V268.849Z" fill="white"></path>
<path d="M658.949 320.787H657.985C655.639 323.872 652.586 326.669 648.857 329.176C645.129 331.682 640.372 332.936 634.619 332.936C630.473 332.936 626.584 332.261 622.953 330.943C619.321 329.626 616.171 327.761 613.504 325.351C610.836 322.94 608.747 320.144 607.204 316.866C605.661 313.62 604.89 310.02 604.89 306.067C604.89 301.921 605.726 298.193 607.365 294.882C609.004 291.572 611.318 288.808 614.243 286.558C617.167 284.308 620.671 282.573 624.72 281.351C628.77 280.13 633.141 279.519 637.833 279.519C643.04 279.519 647.411 280.034 650.947 281.03C654.45 282.058 657.117 282.991 658.949 283.826V280.773C658.949 278.427 658.435 276.241 657.439 274.216C656.41 272.192 655.028 270.456 653.293 269.01C651.557 267.563 649.532 266.438 647.283 265.667C645.033 264.864 642.687 264.478 640.244 264.478C636.291 264.478 632.755 265.249 629.606 266.792C626.456 268.335 623.66 270.809 621.217 274.216L607.14 264.928C610.868 259.818 615.496 255.961 621.056 253.325C626.584 250.722 632.884 249.404 639.923 249.404C651.525 249.404 660.524 252.297 666.856 258.05C673.187 263.803 676.369 272.031 676.369 282.669V330.3H658.949V320.723V320.787ZM658.949 297.775C656.603 296.393 654 295.268 651.107 294.432C648.215 293.565 644.936 293.147 641.208 293.147C635.68 293.147 631.245 294.432 627.934 296.971C624.624 299.543 622.985 302.628 622.985 306.26C622.985 308.188 623.403 309.859 624.27 311.306C625.138 312.752 626.199 314.006 627.549 315.066C628.866 316.127 630.441 316.93 632.177 317.477C633.945 318.023 635.712 318.28 637.544 318.28C640.437 318.28 643.169 317.734 645.772 316.609C648.375 315.484 650.657 314.006 652.554 312.141C654.482 310.277 656.025 308.124 657.182 305.681C658.339 303.239 658.949 300.635 658.949 297.839V297.775Z" fill="white"></path>
<path d="M708.992 265.152H709.956C712.078 260.685 715.324 257.213 719.63 254.771C723.937 252.328 728.726 251.107 733.933 251.107C735.636 251.107 736.89 251.171 737.693 251.268C738.497 251.364 739.332 251.525 740.168 251.75V269.652C738.979 269.234 737.854 268.944 736.729 268.784C735.604 268.623 734.158 268.559 732.326 268.559C725.609 268.559 720.209 270.616 716.095 274.73C711.981 278.844 709.924 284.243 709.924 290.96V331.746H692.183V253.389H708.96V265.216L708.992 265.152ZM764.144 267.723H750.388V252.039H764.144V228.062H781.886V252.039H801.234V267.723H781.886V303.527C781.886 305.488 782.11 307.32 782.528 308.959C782.946 310.598 783.589 311.98 784.457 313.073C786.257 315.162 788.571 316.19 791.335 316.19C793.038 316.19 794.356 316.062 795.32 315.804C796.284 315.547 797.281 315.13 798.341 314.615L803.773 330.3C801.523 331.167 799.177 331.81 796.734 332.292C794.291 332.774 791.495 332.999 788.41 332.999C784.682 332.999 781.371 332.389 778.511 331.2C775.65 330.01 773.111 328.371 770.99 326.314C766.394 321.622 764.112 315.29 764.112 307.223V267.755L764.144 267.723Z" fill="white"></path>
<path d="M830.609 262.612H831.573C833.92 258.884 837.262 255.766 841.569 253.259C845.876 250.752 850.761 249.499 856.193 249.499C866.092 249.499 873.516 252.456 878.433 258.37C883.319 264.283 885.793 272.158 885.793 281.96V330.395H868.052V284.339C868.052 277.525 866.477 272.736 863.328 270.036C860.178 267.305 856.064 265.955 850.922 265.955C847.836 265.955 845.104 266.597 842.758 267.883C840.412 269.169 838.387 270.904 836.684 273.09C834.98 275.275 833.695 277.782 832.859 280.61C831.991 283.439 831.573 286.396 831.573 289.481V330.427H813.832V252.07H830.609V262.612Z" fill="white"></path>
<path d="M973.729 311.69C970.418 317.764 965.726 322.842 959.651 326.892C953.577 330.942 946.121 332.966 937.282 332.966C931.433 332.966 926.001 331.938 921.052 329.849C916.102 327.76 911.795 324.867 908.196 321.139C904.564 317.411 901.735 313.008 899.711 307.962C897.686 302.916 896.689 297.323 896.689 291.249C896.689 285.592 897.654 280.257 899.582 275.179C901.51 270.133 904.178 265.698 907.649 261.905C911.12 258.113 915.298 255.124 920.184 252.874C925.069 250.624 930.533 249.531 936.479 249.531C942.425 249.531 947.953 250.56 952.709 252.585C957.466 254.609 961.483 257.438 964.794 261.069C968.104 264.701 970.643 269.072 972.379 274.183C974.115 279.293 975.014 284.885 975.014 290.96V292.406C974.918 292.952 974.854 293.434 974.854 293.852C974.757 294.27 974.693 294.72 974.693 295.138H914.431C914.752 298.866 915.652 302.112 917.163 304.876C918.641 307.64 920.505 309.954 922.691 311.754C924.876 313.554 927.287 314.904 929.954 315.739C932.622 316.607 935.225 317.025 937.796 317.025C942.907 317.025 947.117 315.804 950.427 313.361C953.738 310.918 956.438 307.865 958.591 304.233L973.793 311.754L973.729 311.69ZM957.273 281.478C957.048 279.871 956.566 278.104 955.763 276.111C954.959 274.15 953.738 272.318 952.099 270.679C950.46 269.04 948.306 267.626 945.703 266.437C943.099 265.28 939.918 264.669 936.189 264.669C931.079 264.669 926.676 266.18 923.012 269.233C919.348 272.286 916.841 276.336 915.588 281.478H957.305H957.273Z" fill="white"></path>
<path d="M986.745 252.038H1003.52V263.865H1004.49C1005.45 261.841 1006.74 259.944 1008.41 258.177C1010.08 256.409 1011.91 254.93 1014 253.677C1016.09 252.456 1018.27 251.427 1020.56 250.624C1022.84 249.82 1025.06 249.435 1027.18 249.435C1029.75 249.435 1031.93 249.692 1033.73 250.174C1035.53 250.656 1037.2 251.331 1038.68 252.166L1033.57 268.301C1032.38 267.754 1031.1 267.369 1029.65 267.112C1028.21 266.854 1026.47 266.726 1024.45 266.726C1021.55 266.726 1018.92 267.304 1016.54 268.494C1014.13 269.683 1012.04 271.29 1010.21 273.315C1008.41 275.339 1006.99 277.75 1005.96 280.546C1004.94 283.342 1004.45 286.267 1004.45 289.384V330.363H986.713V252.006L986.745 252.038Z" fill="white"></path>
<path d="M606.112 109.66C606.112 121.744 602.545 131.354 595.377 138.521C587.342 147.039 576.736 151.313 563.623 151.313C550.51 151.313 540.45 146.974 531.74 138.264C523.063 129.587 518.692 118.884 518.692 106.157C518.692 93.4292 523.03 82.7266 531.74 74.0488C540.418 65.371 551.056 61 563.623 61C569.987 61 575.965 62.1249 581.621 64.3747C587.246 66.6245 591.874 69.8063 595.506 73.9202L587.535 81.8909C584.868 78.6769 581.429 76.17 577.218 74.3381C573.008 72.5382 568.476 71.6062 563.623 71.6062C554.206 71.6062 546.235 74.8523 539.711 81.3767C533.283 87.9654 530.069 96.2253 530.069 106.124C530.069 116.024 533.283 124.284 539.711 130.872C546.235 137.397 554.206 140.643 563.623 140.643C572.237 140.643 579.404 138.232 585.125 133.411C590.846 128.59 594.124 121.937 595.024 113.484H563.623V103.103H605.501C605.887 105.353 606.112 107.539 606.112 109.628V109.66Z" fill="white"></path>
<path d="M613.73 119.784C613.73 110.689 616.591 103.168 622.312 97.222C628.097 91.2761 635.393 88.2871 644.167 88.2871C652.941 88.2871 660.173 91.2761 665.894 97.222C671.679 103.168 674.571 110.689 674.571 119.784C674.571 128.88 671.679 136.497 665.894 142.346C660.173 148.292 652.941 151.281 644.167 151.281C635.393 151.281 628.097 148.292 622.312 142.346C616.591 136.401 613.73 128.88 613.73 119.784ZM624.851 119.784C624.851 126.148 626.715 131.29 630.411 135.244C634.107 139.197 638.703 141.157 644.167 141.157C649.631 141.157 654.227 139.197 657.923 135.244C661.619 131.29 663.483 126.148 663.483 119.784C663.483 113.421 661.619 108.407 657.923 104.453C654.13 100.436 649.566 98.4112 644.167 98.4112C638.767 98.4112 634.204 100.436 630.411 104.453C626.715 108.407 624.851 113.517 624.851 119.784Z" fill="white"></path>
<path d="M681.321 119.784C681.321 110.689 684.181 103.168 689.902 97.222C695.688 91.2761 702.983 88.2871 711.758 88.2871C720.532 88.2871 727.763 91.2761 733.484 97.222C739.269 103.168 742.162 110.689 742.162 119.784C742.162 128.88 739.269 136.497 733.484 142.346C727.763 148.292 720.532 151.281 711.758 151.281C702.983 151.281 695.688 148.292 689.902 142.346C684.181 136.401 681.321 128.88 681.321 119.784ZM692.441 119.784C692.441 126.148 694.306 131.29 698.002 135.244C701.698 139.197 706.294 141.157 711.758 141.157C717.221 141.157 721.817 139.197 725.513 135.244C729.21 131.29 731.074 126.148 731.074 119.784C731.074 113.421 729.21 108.407 725.513 104.453C721.721 100.436 717.157 98.4112 711.758 98.4112C706.358 98.4112 701.794 100.436 698.002 104.453C694.306 108.407 692.441 113.517 692.441 119.784Z" fill="white"></path>
<path d="M778.512 177.379C775.201 177.379 772.116 176.961 769.223 176.126C766.331 175.29 763.695 174.101 761.317 172.558C758.938 171.015 756.914 169.215 755.21 167.126C753.507 165.037 752.221 162.691 751.353 160.12L761.863 155.781C763.085 159.252 765.174 162.016 768.131 164.105C771.12 166.194 774.558 167.255 778.512 167.255C784.554 167.255 789.246 165.455 792.621 161.823C795.996 158.191 797.699 153.21 797.699 146.846V141.157H797.217C795.128 144.307 792.3 146.782 788.7 148.582C785.133 150.381 781.244 151.313 777.065 151.313C769.352 151.313 762.699 148.292 757.139 142.25C751.675 136.047 748.943 128.558 748.943 119.784C748.943 111.01 751.675 103.554 757.139 97.447C762.699 91.3404 769.32 88.2871 777.065 88.2871C781.244 88.2871 785.133 89.187 788.7 91.019C792.268 92.8188 795.128 95.2936 797.217 98.4433H797.699V90.2476H808.338V146.878C808.338 156.359 805.638 163.816 800.238 169.215C794.774 174.679 787.511 177.411 778.512 177.411V177.379ZM778.865 141.157C784.329 141.157 788.796 139.197 792.268 135.244C795.899 131.29 797.699 126.148 797.699 119.784C797.699 113.421 795.899 108.471 792.268 104.453C788.732 100.436 784.265 98.4112 778.865 98.4112C773.466 98.4112 769.095 100.436 765.463 104.453C761.831 108.471 760.031 113.581 760.031 119.784C760.031 125.987 761.831 131.162 765.463 135.115C769.095 139.132 773.562 141.157 778.865 141.157Z" fill="white"></path>
<path d="M832.956 62.9287V149.353H821.836V62.9287H832.956Z" fill="white"></path>
<path d="M872.426 151.314C863.748 151.314 856.581 148.325 850.924 142.379C845.3 136.433 842.472 128.912 842.472 119.816C842.472 110.721 845.204 103.297 850.667 97.3185C856.131 91.3083 863.138 88.3193 871.687 88.3193C880.236 88.3193 887.435 91.1477 892.642 96.8364C897.817 102.525 900.42 110.464 900.42 120.684L900.291 121.906H853.817C853.978 127.691 855.906 132.383 859.602 135.919C863.298 139.454 867.734 141.222 872.876 141.222C879.947 141.222 885.507 137.686 889.525 130.583L899.424 135.404C896.756 140.386 893.092 144.307 888.367 147.103C883.675 149.932 878.34 151.314 872.362 151.314H872.426ZM854.685 112.681H888.592C888.271 108.567 886.6 105.193 883.579 102.493C880.557 99.7933 876.508 98.4434 871.462 98.4434C867.284 98.4434 863.684 99.729 860.663 102.3C857.642 104.871 855.649 108.343 854.685 112.681Z" fill="white"></path>
<path d="M977.329 151.313C964.537 151.313 953.835 147.006 945.221 138.393C936.704 129.779 932.43 119.045 932.43 106.157C932.43 93.2685 936.704 82.5659 945.221 74.0488C953.739 65.371 964.441 61 977.329 61C990.217 61 1000.95 65.6924 1009.08 75.1094L1001.11 82.823C994.91 75.3344 987.003 71.6062 977.329 71.6062C967.655 71.6062 959.749 74.8202 953.321 81.2481C946.957 87.6119 943.775 95.9039 943.775 106.124C943.775 116.345 946.957 124.637 953.321 131.001C959.749 137.429 967.751 140.643 977.329 140.643C987.389 140.643 996.131 136.432 1003.52 127.98L1011.62 135.822C1007.51 140.739 1002.49 144.532 996.549 147.231C990.603 149.931 984.207 151.281 977.361 151.281L977.329 151.313Z" fill="white"></path>
<path d="M1032.61 62.9287V149.353H1021.49V62.9287H1032.61Z" fill="white"></path>
<path d="M1042.16 119.784C1042.16 110.689 1045.02 103.168 1050.74 97.222C1056.52 91.2761 1063.82 88.2871 1072.59 88.2871C1081.37 88.2871 1088.6 91.2761 1094.32 97.222C1100.1 103.168 1103 110.689 1103 119.784C1103 128.88 1100.1 136.497 1094.32 142.346C1088.6 148.292 1081.37 151.281 1072.59 151.281C1063.82 151.281 1056.52 148.292 1050.74 142.346C1045.02 136.401 1042.16 128.88 1042.16 119.784ZM1053.28 119.784C1053.28 126.148 1055.14 131.29 1058.84 135.244C1062.53 139.197 1067.13 141.157 1072.59 141.157C1078.06 141.157 1082.65 139.197 1086.35 135.244C1090.04 131.29 1091.91 126.148 1091.91 119.784C1091.91 113.421 1090.04 108.407 1086.35 104.453C1082.56 100.436 1077.99 98.4112 1072.59 98.4112C1067.19 98.4112 1062.63 100.436 1058.84 104.453C1055.14 108.407 1053.28 113.517 1053.28 119.784Z" fill="white"></path>
<path d="M1164.42 149.385H1153.78V141.189H1153.3C1151.59 144.081 1149.02 146.492 1145.52 148.42C1142.01 150.349 1138.38 151.313 1134.59 151.313C1127.36 151.313 1121.77 149.256 1117.88 145.11C1113.99 140.964 1112.03 135.082 1112.03 127.433V90.2471H1123.15V126.694C1123.41 136.336 1128.26 141.189 1137.74 141.189C1142.18 141.189 1145.87 139.389 1148.86 135.821C1151.85 132.254 1153.33 127.947 1153.33 122.966V90.2471H1164.45V149.385H1164.42Z" fill="white"></path>
<path d="M1202.08 151.313C1194.37 151.313 1187.72 148.259 1182.16 142.153C1176.69 135.95 1173.96 128.525 1173.96 119.815C1173.96 111.106 1176.69 103.681 1182.16 97.4782C1187.72 91.3717 1194.34 88.3184 1202.08 88.3184C1206.42 88.3184 1210.38 89.2504 1213.97 91.0824C1217.54 92.9465 1220.31 95.3891 1222.23 98.4424H1222.72L1222.23 90.2468V62.96H1233.36V149.384H1222.72V141.189H1222.23C1220.31 144.242 1217.54 146.717 1213.97 148.549C1210.41 150.381 1206.42 151.313 1202.08 151.313ZM1203.88 141.156C1209.35 141.156 1213.81 139.196 1217.29 135.243C1220.92 131.289 1222.72 126.147 1222.72 119.783C1222.72 113.42 1220.92 108.47 1217.29 104.453C1213.75 100.435 1209.28 98.4103 1203.88 98.4103C1198.48 98.4103 1194.11 100.435 1190.48 104.453C1186.85 108.47 1185.05 113.58 1185.05 119.783C1185.05 125.986 1186.85 131.161 1190.48 135.114C1194.11 139.132 1198.58 141.156 1203.88 141.156Z" fill="white"></path>
<path d="M302.614 155.007L312.32 155.2L338.643 128.877L339.929 117.725C319.006 99.1159 291.462 87.7705 261.314 87.7705C206.741 87.7705 160.684 124.892 147.025 175.223C149.917 173.231 156.024 174.709 156.024 174.709L208.669 166.063C208.669 166.063 211.401 161.596 212.751 161.853C224.803 148.676 242.095 140.384 261.314 140.384C276.934 140.384 291.301 145.879 302.614 155.007Z" fill="#EA4335"></path>
<path d="M375.605 175.256C369.499 152.694 356.868 132.799 339.898 117.661L302.584 154.976C317.529 167.06 327.106 185.508 327.106 206.142V212.731C345.233 212.731 359.985 227.483 359.985 245.61C359.985 263.737 345.233 278.489 327.074 278.489H261.284L254.695 285.11V324.578L261.284 331.134H327.074C374.223 331.134 412.598 292.759 412.598 245.61C412.598 216.459 397.911 190.683 375.573 175.224L375.605 175.256Z" fill="#4285F4"></path>
<path d="M195.524 331.133H261.25V278.488H195.524C190.703 278.488 186.107 277.428 181.961 275.531L172.479 278.424L146.125 304.779L143.811 313.681C158.177 324.609 176.079 331.133 195.492 331.133H195.524Z" fill="#34A853"></path>
<path d="M195.524 160.086C148.375 160.086 110 198.461 110 245.61C110 273.379 123.306 298.095 143.875 313.715L182.026 275.565C170.616 270.39 162.645 258.916 162.645 245.61C162.645 227.483 177.397 212.731 195.524 212.731C208.862 212.731 220.336 220.702 225.479 232.111L263.629 193.961C248.009 173.392 223.293 160.086 195.524 160.086Z" fill="#FBBC05"></path>
<path d="M195.139 473.643V525.52H184.621V520.229C183.523 522.086 181.937 523.597 180.014 524.554C177.949 525.586 175.613 526.13 173.277 526.13C170.387 526.196 167.506 525.37 165.095 523.728C162.618 522.077 160.695 519.816 159.456 517.132C158.086 514.036 157.392 510.743 157.467 507.374C157.401 504.006 158.086 500.713 159.456 497.682C160.695 495.074 162.618 492.803 165.02 491.227C167.497 489.65 170.378 488.89 173.267 488.956C175.538 488.956 177.799 489.434 179.798 490.467C181.721 491.433 183.307 492.869 184.405 494.661V477.134L195.129 473.625L195.139 473.643ZM182.491 515.284C183.861 513.501 184.621 510.883 184.621 507.515C184.621 504.147 183.936 501.604 182.491 499.821C181.046 498.038 178.775 497.006 176.448 497.072C174.112 496.931 171.841 497.963 170.331 499.755C168.886 501.538 168.135 504.081 168.135 507.384C168.135 510.686 168.895 513.36 170.331 515.218C171.776 517.076 174.112 518.108 176.448 518.033C179.057 518.033 181.121 517.067 182.491 515.284ZM232.726 491.161C235.203 492.737 237.126 495.008 238.29 497.616C239.66 500.637 240.354 503.94 240.279 507.309C240.344 510.677 239.66 514.045 238.29 517.067C237.051 519.75 235.128 522.011 232.651 523.663C230.249 525.239 227.359 526.065 224.478 525.999C222.142 526.065 219.806 525.52 217.741 524.423C215.818 523.456 214.232 521.946 213.21 520.097V525.455H202.626V477.143L213.275 473.634V494.801C214.307 492.944 215.884 491.433 217.807 490.476C219.871 489.378 222.133 488.825 224.469 488.9C227.359 488.834 230.239 489.66 232.716 491.17L232.726 491.161ZM227.5 515.209C228.944 513.351 229.629 510.743 229.629 507.309C229.629 503.874 228.944 501.463 227.5 499.68C226.055 497.898 224.065 496.997 221.457 496.997C219.121 496.856 216.85 497.888 215.34 499.746C213.895 501.604 213.21 504.147 213.21 507.44C213.21 510.733 213.895 513.417 215.34 515.209C216.784 517.067 219.046 518.099 221.457 517.958C223.793 518.099 226.064 517.067 227.5 515.209ZM254.991 497.757H264.064V489.782H254.991V477.959L244.341 481.394V511.831C244.341 516.363 245.514 519.872 247.851 522.349C250.187 524.826 253.555 526.055 257.956 526.055C260.02 526.121 262.075 525.783 264.073 525.089V516.841C262.976 517.114 261.737 517.32 260.564 517.32C259.054 517.386 257.609 516.907 256.511 515.95C255.544 515.059 255 513.614 255 511.625V497.748L254.991 497.757ZM195.139 473.634V525.511H184.621V520.219C183.523 522.077 181.937 523.588 180.014 524.545C177.949 525.577 175.613 526.121 173.277 526.121C170.387 526.187 167.506 525.361 165.095 523.719C162.618 522.068 160.695 519.806 159.456 517.123C158.086 514.027 157.392 510.733 157.467 507.365C157.401 503.996 158.086 500.703 159.456 497.673C160.695 495.064 162.618 492.794 165.02 491.217C167.497 489.641 170.378 488.881 173.267 488.947C175.538 488.947 177.799 489.425 179.798 490.457C181.721 491.424 183.307 492.859 184.405 494.651V477.124L195.129 473.615L195.139 473.634ZM182.491 515.274C183.861 513.492 184.621 510.874 184.621 507.506C184.621 504.137 183.936 501.594 182.491 499.812C181.046 498.029 178.775 496.997 176.448 497.063C174.112 496.922 171.841 497.954 170.331 499.746C168.886 501.529 168.135 504.072 168.135 507.374C168.135 510.677 168.895 513.351 170.331 515.209C171.776 517.067 174.112 518.099 176.448 518.024C179.057 518.024 181.121 517.057 182.491 515.274ZM232.726 491.152C235.203 492.728 237.126 494.998 238.29 497.607C239.66 500.628 240.354 503.931 240.279 507.299C240.344 510.668 239.66 514.036 238.29 517.057C237.051 519.741 235.128 522.002 232.651 523.653C230.249 525.23 227.359 526.055 224.478 525.99C222.142 526.055 219.806 525.511 217.741 524.413C215.818 523.447 214.232 521.936 213.21 520.088V525.445H202.626V477.134L213.275 473.625V494.792C214.307 492.934 215.884 491.424 217.807 490.467C219.871 489.369 222.133 488.815 224.469 488.89C227.359 488.825 230.239 489.65 232.716 491.161L232.726 491.152ZM227.5 515.199C228.944 513.342 229.629 510.733 229.629 507.299C229.629 503.865 228.944 501.454 227.5 499.671C226.055 497.888 224.065 496.988 221.457 496.988C219.121 496.847 216.85 497.879 215.34 499.737C213.895 501.594 213.21 504.137 213.21 507.431C213.21 510.724 213.895 513.407 215.34 515.199C216.784 517.057 219.046 518.089 221.457 517.949C223.793 518.089 226.064 517.057 227.5 515.199ZM254.991 497.748H264.064V489.772H254.991V477.95L244.341 481.384V511.822C244.341 516.354 245.514 519.863 247.851 522.34C250.187 524.817 253.555 526.046 257.956 526.046C260.02 526.112 262.075 525.774 264.073 525.079V516.832C262.976 517.104 261.737 517.311 260.564 517.311C259.054 517.376 257.609 516.898 256.511 515.941C255.544 515.049 255 513.604 255 511.615V497.738L254.991 497.748ZM361.532 490.748C357.76 490.748 353.988 492.794 350.901 495.458L351.089 489.397V475.398L345.365 478.794V525.511H350.46V521.946C353.462 524.657 357.15 526.28 360.302 526.28C368.043 526.28 374.958 519.544 374.958 507.975C374.977 497.541 370.276 490.748 361.532 490.748ZM368.719 511.981C368.587 513.773 368.118 515.528 367.33 517.142C367.03 517.705 366.683 518.249 366.289 518.746C365.773 519.365 365.163 519.891 364.478 520.313C363.089 521.101 361.513 521.495 359.918 521.448H359.608C358.116 521.448 356.653 521.064 355.358 520.322C354.673 519.9 354.063 519.375 353.547 518.755C353.153 518.258 352.796 517.714 352.505 517.151C351.689 515.472 351.211 513.651 351.098 511.794C350.985 510.696 350.948 509.579 350.948 508.519C350.948 507.459 350.995 506.333 351.098 505.244C351.211 503.377 351.68 501.548 352.496 499.868C352.721 499.446 352.975 499.042 353.247 498.648L353.528 498.282C354.044 497.663 354.654 497.138 355.339 496.715C356.737 495.937 358.323 495.561 359.918 495.618H360.04C360.406 495.618 360.772 495.618 361.147 495.683L361.644 495.749C361.841 495.777 362.029 495.815 362.226 495.862L362.517 495.927L362.723 495.974L363.07 496.087C363.568 496.256 364.046 496.481 364.497 496.753C365.181 497.175 365.791 497.701 366.307 498.32C366.701 498.798 367.049 499.324 367.349 499.868C368.569 502.064 368.916 505.498 368.916 508.51C368.916 509.673 368.859 510.836 368.747 511.991L368.719 511.981ZM287.474 520.538V479.808V475.445L281.657 478.982V479.78V525.474H307.421V520.548H287.474V520.538ZM310.696 516.71C310.696 509.335 317.058 505.667 331.488 504.081C331.488 499.727 330.024 495.524 324.498 495.524C320.585 495.524 317.058 497.372 314.402 499.155L312.16 495.233C315.275 493.188 320.022 490.804 325.464 490.804C333.731 490.804 337.221 496.303 337.221 504.728V525.502H331.939V521.448C328.711 524.132 324.751 526.327 320.557 526.327C314.956 526.327 310.705 522.846 310.705 516.701L310.696 516.71ZM331.488 514.561C331.488 513.698 331.291 512.854 330.916 512.084C330.512 511.324 330.015 510.658 329.377 510.095C328.701 509.57 328.176 509.241 327.247 508.969C326.403 508.791 325.286 508.885 324.451 509.091C318.502 510.649 316.288 513.032 316.288 516.307C316.288 520.154 318.906 521.73 322.237 521.73C324.733 521.73 326.9 520.792 329.246 519.074C329.94 518.549 330.512 517.874 330.897 517.085C331.282 516.307 331.488 515.443 331.479 514.571L331.488 514.561ZM377.632 521.617L380.457 517.845C383.393 520.21 386.405 521.852 390.449 521.852C394.887 521.852 397.101 519.478 397.101 516.597C397.101 513.116 393.104 511.568 389.351 510.18C384.613 508.481 379.256 506.108 379.256 500.403C379.256 494.698 383.6 490.786 390.937 490.786C394.775 490.842 398.481 492.184 401.464 494.595L398.725 498.264C396.388 496.565 394.005 495.261 391.003 495.261C386.752 495.261 384.773 497.532 384.773 500.112C384.773 503.33 388.451 504.559 392.288 505.986C397.167 507.825 402.609 509.804 402.609 516.25C402.609 521.749 398.256 526.318 390.261 526.318C385.636 526.234 381.188 524.573 377.632 521.617Z" fill="white"></path>
<path d="M137.763 465.162C139.546 466.879 140.718 469.15 140.991 471.617C140.991 472.649 140.718 473.334 140.099 474.639C139.48 475.943 131.852 489.135 129.581 492.775C128.277 494.905 127.592 497.448 127.592 499.925C127.592 502.402 128.277 504.945 129.581 507.075C131.852 510.715 139.48 523.982 140.099 525.286C140.718 526.591 140.991 527.21 140.991 528.242C140.718 530.719 139.621 532.98 137.829 534.632C136.112 536.414 133.841 537.587 131.439 537.794C130.407 537.794 129.722 537.521 128.483 536.902C127.245 536.283 113.781 528.861 110.14 526.591C109.868 526.45 109.587 526.243 109.249 526.112L91.2434 515.463C91.6563 518.897 93.1669 522.2 95.6439 524.601C96.1224 525.08 96.6103 525.493 97.1545 525.906C96.7417 526.112 96.2632 526.319 95.8503 526.591C92.2099 528.861 78.9427 536.489 77.6385 537.109C76.3343 537.728 75.715 538 74.6173 538C72.1402 537.728 69.879 536.63 68.2277 534.838C66.4449 533.121 65.2721 530.85 65 528.383C65.0657 527.351 65.3472 526.319 65.8914 525.427C66.5106 524.123 74.1387 510.856 76.4094 507.215C77.7136 505.085 78.3985 502.608 78.3985 500.066C78.3985 497.523 77.7136 495.046 76.4094 492.916C74.1387 489.135 66.4449 475.877 65.8914 474.573C65.3378 473.681 65.0657 472.649 65 471.617C65.2721 469.14 66.3699 466.879 68.162 465.162C69.879 463.379 72.1496 462.272 74.6173 462C75.6494 462.066 76.6815 462.347 77.6385 462.891C78.7363 463.37 88.4286 469.009 93.5797 472.03L94.7526 472.715C95.1654 472.987 95.5126 473.194 95.7847 473.334L96.3383 473.681L114.681 484.537C114.269 480.418 112.139 476.637 108.836 474.094C109.249 473.888 109.727 473.681 110.14 473.409C113.781 471.139 127.048 463.445 128.352 462.891C129.243 462.338 130.276 462.066 131.373 462C133.775 462.272 136.046 463.37 137.763 465.162ZM103.957 504.879L107.87 500.966C108.423 500.413 108.423 499.597 107.87 499.043L103.957 495.13C103.403 494.577 102.587 494.577 102.034 495.13L98.121 499.043C97.5674 499.597 97.5674 500.413 98.121 500.966L102.034 504.879C102.512 505.358 103.403 505.358 103.957 504.879Z" fill="#FF694A"></path>
<path d="M564.26 485.65L528.862 459.975V477.736L564.26 503.265V485.687V485.65Z" fill="#FF6492"></path>
<path d="M564.26 503.574L553.606 511.347L528.659 493.307L514.424 503.574L503.712 496.35L528.659 477.869L564.23 503.537L564.26 503.574Z" fill="#141446"></path>
<path d="M514.424 503.568L503.712 496.34V511.347L514.395 503.568H514.424Z" fill="#A14474"></path>
<path d="M493 536.599L528.63 511.347L564.26 536.599L528.63 562.141L493 536.599Z" fill="#141446"></path>
<path d="M564.26 519.014L528.862 492.877V511.195L564.26 536.745V519.014Z" fill="#FF6492"></path>
<path d="M503.732 511.252V496.271L528.863 477.812V459.975L493 485.76V536.744L528.863 511.252V492.938L503.732 511.252Z" fill="#7A77FF"></path>
<path d="M622.861 477.716C622.701 470.156 629.221 463.956 636.741 464.076C641.581 464.076 645.781 466.436 648.061 470.156L644.861 472.516C642.981 469.596 640.261 467.956 636.781 467.956C631.381 467.956 627.261 472.116 627.261 477.716C627.261 483.316 631.381 487.476 636.781 487.476C640.261 487.476 642.981 485.836 644.861 482.916L648.061 485.276C645.821 488.996 641.661 491.356 636.741 491.356C629.221 491.476 622.701 485.276 622.861 477.716ZM652.653 482.676V471.276H656.813V482.996C656.813 485.716 658.693 487.476 661.253 487.476C663.693 487.476 665.573 485.716 665.573 482.996V471.276H669.773V482.676C669.773 487.956 666.053 491.356 661.253 491.356C656.333 491.356 652.653 487.956 652.653 482.676ZM696.065 481.116C696.065 486.916 691.945 491.356 686.465 491.356C683.585 491.356 681.065 490.236 679.585 488.196V490.916H675.665V460.916H679.865V473.676C681.345 471.876 683.705 470.836 686.425 470.836C691.985 470.836 696.065 475.276 696.065 481.116ZM691.745 481.076C691.745 477.316 689.105 474.676 685.745 474.676C682.665 474.676 679.825 476.796 679.825 481.116C679.825 485.396 682.665 487.516 685.745 487.516C689.145 487.516 691.745 484.836 691.745 481.076ZM718.58 482.476H703.94C704.46 485.676 706.98 487.636 710.34 487.636C712.38 487.636 714.3 486.876 716.06 485.316L718.06 488.196C715.82 490.316 713.22 491.356 710.22 491.356C704.22 491.356 699.66 486.916 699.66 481.116C699.54 475.476 704.26 470.716 709.82 470.836C715.02 470.836 718.9 474.716 718.9 479.836C718.9 480.676 718.78 481.556 718.58 482.476ZM704.02 479.196H714.7C714.66 476.196 712.42 474.396 709.66 474.396C706.9 474.396 704.66 476.276 704.02 479.196ZM735.203 490.916V464.516H744.843C750.163 464.516 753.803 467.836 753.803 472.596C753.803 477.316 750.163 480.716 744.843 480.716H739.443V490.916H735.203ZM739.443 476.956H744.763C747.763 476.956 749.443 475.236 749.443 472.636C749.443 470.036 747.763 468.276 744.763 468.276H739.443V476.956ZM773.414 479.036V490.916H769.494V488.716C768.054 490.436 765.894 491.356 763.214 491.356C759.094 491.356 756.374 489.076 756.374 485.676C756.374 482.276 759.174 480.076 763.614 480.076H769.174V478.796C769.174 476.076 767.654 474.596 764.974 474.596C762.774 474.596 761.174 475.556 759.534 477.516L757.094 475.036C759.054 472.196 761.974 470.836 765.374 470.836C770.214 470.836 773.414 473.756 773.414 479.036ZM769.174 483.476V483.116H764.134C761.894 483.116 760.654 483.916 760.654 485.516C760.654 487.156 762.054 488.116 764.094 488.116C766.934 488.116 769.174 486.156 769.174 483.476ZM790.499 471.276V474.996H789.219C785.899 474.996 783.459 476.956 783.459 480.436V490.916H779.259V471.276H783.179V473.836C784.579 472.076 786.659 471.076 788.899 471.076C789.499 471.076 790.019 471.156 790.499 471.276ZM805.939 487.356V490.916C804.619 491.196 803.459 491.356 802.459 491.356C797.939 491.356 795.219 489.116 795.219 484.516V474.916H792.019V471.276H795.219V466.116H799.459V471.276H805.299V474.916H799.459V484.156C799.459 486.676 800.779 487.556 803.339 487.556C803.939 487.556 804.779 487.476 805.939 487.356ZM827.357 478.636V490.916H823.157V479.196C823.157 476.476 821.437 474.636 818.877 474.636C816.277 474.636 814.397 476.516 814.397 479.196V490.916H810.197V471.276H814.117V473.196C815.597 471.636 817.557 470.836 819.997 470.836C824.597 470.836 827.357 473.956 827.357 478.636ZM850.884 482.476H836.244C836.764 485.676 839.284 487.636 842.644 487.636C844.684 487.636 846.604 486.876 848.364 485.316L850.364 488.196C848.124 490.316 845.524 491.356 842.524 491.356C836.524 491.356 831.964 486.916 831.964 481.116C831.844 475.476 836.564 470.716 842.124 470.836C847.324 470.836 851.204 474.716 851.204 479.836C851.204 480.676 851.084 481.556 850.884 482.476ZM836.324 479.196H847.004C846.964 476.196 844.724 474.396 841.964 474.396C839.204 474.396 836.964 476.276 836.324 479.196ZM867.257 471.276V474.996H865.977C862.657 474.996 860.217 476.956 860.217 480.436V490.916H856.017V471.276H859.937V473.836C861.337 472.076 863.417 471.076 865.657 471.076C866.257 471.076 866.777 471.156 867.257 471.276ZM641.981 498.516H646.221V525.356H644.781L628.701 507.036V524.916H624.461V498.076H625.941L641.981 516.316V498.516ZM670.103 516.476H655.463C655.983 519.676 658.503 521.636 661.863 521.636C663.903 521.636 665.823 520.876 667.583 519.316L669.583 522.196C667.343 524.316 664.743 525.356 661.743 525.356C655.743 525.356 651.183 520.916 651.183 515.116C651.063 509.476 655.783 504.716 661.343 504.836C666.543 504.836 670.423 508.716 670.423 513.836C670.423 514.676 670.303 515.556 670.103 516.476ZM655.543 513.196H666.223C666.183 510.196 663.943 508.396 661.183 508.396C658.423 508.396 656.183 510.276 655.543 513.196ZM686.916 521.356V524.916C685.596 525.196 684.436 525.356 683.436 525.356C678.916 525.356 676.196 523.116 676.196 518.516V508.916H672.996V505.276H676.196V500.116H680.436V505.276H686.276V508.916H680.436V518.156C680.436 520.676 681.756 521.556 684.316 521.556C684.916 521.556 685.756 521.476 686.916 521.356ZM717.053 505.276H721.533L712.813 525.356H711.373L705.213 512.276L699.053 525.356H697.613L688.893 505.276H693.373L698.533 518.116L704.493 504.836H705.933L711.973 517.956L717.053 505.276ZM723.293 515.076C723.173 509.436 728.013 504.756 733.653 504.836C739.373 504.716 744.213 509.516 744.093 515.076C744.213 520.636 739.373 525.476 733.653 525.356C728.013 525.476 723.173 520.636 723.293 515.076ZM739.773 515.116C739.773 511.476 737.093 508.676 733.693 508.676C730.213 508.676 727.573 511.476 727.573 515.116C727.573 518.756 730.213 521.476 733.653 521.476C737.133 521.476 739.773 518.676 739.773 515.116ZM760.148 505.276V508.996H758.868C755.548 508.996 753.108 510.956 753.108 514.436V524.916H748.908V505.276H752.828V507.836C754.228 506.076 756.308 505.076 758.548 505.076C759.148 505.076 759.668 505.156 760.148 505.276ZM763.908 524.916V494.916H768.108V524.916H763.908ZM773.188 513.916L781.788 524.916H776.748L768.228 513.876L775.908 505.276H781.108L773.188 513.916Z" fill="white"></path>
<line x1="598.033" y1="440" x2="598.033" y2="568.141" stroke="white" stroke-width="2"></line>
<path d="M1038.11 479.592V485.802H1020.82V492.509H1036.82V498.719H1020.82V511.636H1012.57V479.592H1038.11Z" fill="#0073FF"></path>
<path d="M1044.82 479.592H1052.04V485.057H1044.82V479.592ZM1044.82 487.789H1052.04V511.636H1044.82V487.789Z" fill="#0073FF"></path>
<path d="M1057.2 487.789H1064.94C1068.04 498.222 1068.55 500.458 1069.33 504.929C1070.36 499.713 1070.36 498.967 1071.91 493.502L1073.46 487.789H1080.94L1072.94 511.388H1065.46L1057.2 487.789Z" fill="#0073FF"></path>
<path d="M1108.29 505.675C1107.51 506.917 1106.48 508.159 1105.19 509.153C1102.61 511.388 1099.26 512.63 1095.9 512.63C1088.68 512.63 1083.52 508.159 1083.52 500.458C1083.52 494.745 1086.36 487.293 1096.16 487.293C1099.51 487.293 1102.61 488.535 1104.93 490.771C1108.03 494 1108.29 498.72 1108.55 501.452H1091C1091 504.433 1092.81 507.414 1096.68 507.414C1100.55 507.414 1102.09 504.93 1102.87 503.191L1108.29 505.675ZM1101.06 496.732C1101.06 495.49 1100.55 494.248 1099.77 493.255C1098.74 492.509 1097.45 492.013 1096.16 492.013C1094.87 492.013 1093.32 492.509 1092.55 493.503C1091.77 494.497 1091.26 495.49 1091 496.732H1101.06Z" fill="#0073FF"></path>
<path d="M1115.77 481.083H1122.99V488.535H1127.64V492.758H1122.74V503.44C1122.74 504.93 1122.74 506.172 1124.54 506.172H1127.12V511.637C1125.83 511.885 1124.54 511.885 1123.25 511.885C1120.67 511.885 1118.09 511.637 1116.29 509.65C1115.25 508.159 1115.25 506.669 1115.25 504.185V492.758H1111.64V488.535H1115.25L1115.77 481.083Z" fill="#0073FF"></path>
<path d="M1140.8 490.273C1142.86 488.535 1145.18 487.541 1148.02 487.541V493.751L1145.7 494C1142.09 494.496 1141.05 494.993 1141.05 497.974V511.388H1133.83V487.541H1140.8V490.273Z" fill="#0073FF"></path>
<path d="M1153.18 494.745C1153.18 492.758 1154.21 490.77 1155.76 489.528C1158.08 487.789 1160.92 487.541 1163.76 487.541C1166.6 487.541 1174.08 488.286 1174.08 494.248V507.91C1174.08 510.394 1174.34 510.891 1174.85 511.636H1167.89V509.401C1166.08 510.643 1164.02 512.133 1160.41 512.133C1154.73 512.133 1152.41 508.159 1152.41 504.929C1152.41 501.203 1155.5 498.968 1157.57 498.222C1160.66 497.229 1164.02 496.484 1167.37 495.987V494.745C1167.37 493.751 1167.11 491.764 1164.53 491.764C1161.44 491.764 1160.92 493.751 1160.66 494.496L1153.18 494.745ZM1162.21 501.7C1160.92 502.197 1159.12 502.694 1159.12 504.681C1159.12 506.171 1160.41 507.165 1161.95 507.165C1162.73 507.165 1163.76 506.917 1164.53 506.42C1166.86 504.929 1167.11 502.694 1167.11 500.21L1162.21 501.7Z" fill="#0073FF"></path>
<path d="M1189.56 490.025C1190.33 489.28 1191.11 488.535 1192.14 488.287C1193.43 487.79 1194.98 487.293 1196.53 487.293C1198.07 487.293 1199.62 487.541 1200.91 488.287C1203.49 489.529 1204.27 491.764 1204.27 495.49V511.637H1197.04V498.223C1197.04 496.981 1197.04 495.739 1196.78 494.745C1196.27 493.503 1194.98 492.758 1193.43 493.006C1189.56 493.006 1189.56 495.987 1189.56 498.968V511.885H1182.34V488.287H1189.56V490.025Z" fill="#0073FF"></path>
<path d="M980.313 495.987H988.828C989.602 495.987 990.118 495.49 990.118 494.745C990.118 494.497 990.118 494.497 990.118 494.248L975.411 455.745C975.153 455.248 974.895 455 974.379 455H965.865C965.091 455 964.575 455.497 964.575 456.242C964.575 456.49 964.575 456.49 964.575 456.739L979.281 495.49C979.281 495.739 979.797 495.987 980.313 495.987Z" fill="#0073FF"></path>
<path d="M978.766 536.974H987.28C988.054 536.974 988.57 536.477 988.57 535.732C988.57 535.483 988.57 535.483 988.57 535.235L958.125 455.745C957.867 455.248 957.351 455 956.835 455H948.32C947.546 455 947.03 455.497 947.03 456.242C947.03 456.49 947.03 456.49 947.03 456.739L977.476 536.229C977.734 536.726 978.25 536.974 978.766 536.974Z" fill="#0073FF"></path>
<path d="M961.995 536.973H970.509C971.283 536.973 971.799 536.476 971.799 535.731C971.799 535.483 971.799 535.483 971.799 535.234L957.093 496.732C956.835 496.235 956.577 495.986 956.061 495.986H947.546C946.772 495.986 946.256 496.483 946.256 497.228C946.256 497.477 946.256 497.477 946.256 497.725L960.963 536.228C960.963 536.725 961.479 536.973 961.995 536.973Z" fill="#0073FF"></path>
<path d="M981.346 456.739L988.312 474.872C988.57 475.369 988.828 475.618 989.344 475.618H997.858C998.632 475.618 999.148 475.121 999.148 474.376C999.148 474.127 999.148 474.127 999.148 473.879L992.182 455.745C991.924 455.248 991.666 455 991.15 455H982.636C981.862 455 981.346 455.497 981.346 456.242C981.346 456.49 981.346 456.49 981.346 456.739Z" fill="#0073FF"></path>
<path d="M946.256 536.974H954.771C955.545 536.974 956.061 536.477 956.061 535.732C956.061 535.484 956.061 535.484 956.061 535.235L949.094 517.102C948.836 516.605 948.32 516.356 947.804 516.356H939.29C938.516 516.356 938 516.853 938 517.598C938 517.847 938 517.847 938 518.095L944.966 536.229C945.224 536.726 945.74 536.974 946.256 536.974Z" fill="#0073FF"></path>
<path d="M166.29 666.915V658.685C171.641 662.415 177.483 664.073 183.08 664.073C187.446 664.073 190.152 662.178 190.152 658.211C190.152 654.244 186.524 653.533 181.419 652.823C172.44 651.402 165.614 649.803 165.614 640.152C165.614 630.796 172.44 625.882 182.403 625.882C188.984 625.882 194.826 627.777 197.963 629.612V637.369C193.596 634.586 187.508 632.928 182.157 632.928C177.791 632.928 174.839 634.823 174.839 638.79C174.839 642.52 178.221 643.467 183.387 644.178C192.12 645.599 199.439 647.198 199.439 656.612C199.439 666.204 192.858 671.119 183.141 671.119C175.761 671.652 170.411 669.757 166.29 666.915ZM212.477 650.987C212.969 645.836 215.367 642.579 219.795 642.757C223.67 642.757 226.376 645.362 226.622 650.987H212.477ZM203.498 654.303C203.498 665.79 210.816 671.652 222.009 671.415C227.606 671.415 231.48 670.231 234.186 668.81V662.237C230.804 663.658 227.606 664.606 223.977 664.606C217.151 664.606 213.03 661.586 212.538 656.198H235.416V652.704C235.416 641.691 229.574 636.303 219.857 636.303C210.632 636.303 203.559 643.112 203.559 653.415V654.303M260.939 648.915C260.939 652.171 259.217 655.014 254.85 655.014C250.73 655.014 248.762 652.408 248.762 648.915C248.762 645.421 250.73 642.816 254.85 642.816C258.971 642.816 260.939 645.362 260.939 648.915ZM264.383 674.198C264.383 676.803 261 678.165 255.404 678.402H253.19C249.315 678.402 246.363 677.691 246.363 675.382C246.363 673.014 249.254 671.415 253.682 671.415H258.786C262.415 671.415 264.383 671.889 264.383 674.198ZM237.569 677.928C237.569 682.842 245.379 684.027 251.468 684.264H253.436C266.597 684.264 273.423 679.586 273.423 672.54C273.423 666.678 269.057 664.546 261.492 664.546H252.452C249.315 664.546 248.085 664.073 248.085 662.889C248.085 660.994 251.222 660.106 253.436 660.106H254.912C263.46 660.106 269.733 655.665 269.733 648.619C269.733 646.961 268.995 645.125 268.011 643.941H273.854V637.132H254.85C247.04 637.132 240.029 641.336 240.029 648.856C240.029 653.77 242.735 657.5 248.085 659.158C242.243 660.816 239.783 663.125 239.783 665.967C239.783 668.336 241.505 670.171 246.855 670.882C240.521 672.303 237.569 674.908 237.569 677.928ZM277.974 670.704H287.199V650.81C287.199 649.152 287.691 647.79 288.429 646.606C289.413 644.948 291.135 643.349 294.026 643.349C297.9 643.349 299.622 645.717 299.622 650.869V670.764H308.601L308.847 650.869C308.847 649.448 309.339 647.849 310.077 646.665C311.061 645.007 312.968 643.408 315.674 643.408C319.548 643.408 321.27 646.014 321.27 650.691V670.823H330.495V648.56C330.495 640.152 326.621 636.362 320.286 636.362C314.936 636.362 311.061 639.619 308.109 644.77C307.617 639.856 304.481 636.362 299.13 636.362C293.534 636.362 289.413 639.856 286.707 644.77V637.25H277.974V670.704ZM345.132 650.987C345.378 645.836 348.023 642.579 352.451 642.757C356.325 642.757 359.031 645.362 359.277 650.987H345.132ZM336.153 654.303C336.153 665.79 343.226 671.652 354.665 671.415C360.261 671.415 364.136 670.231 366.842 668.81V662.237C363.459 663.658 360.261 664.606 356.633 664.606C349.806 664.606 345.686 661.586 345.194 656.198H368.072V652.704C368.072 641.691 362.229 636.303 352.512 636.303C343.287 636.303 336.215 643.112 336.215 653.415V654.303M373.914 670.704H383.139V650.987C383.139 649.329 383.385 647.967 384.369 646.783C385.353 644.652 387.506 643.527 390.212 643.527C394.086 643.527 396.054 646.132 396.054 650.573V670.704H405.28V648.441C405.28 640.211 401.651 636.244 395.071 636.244C389.228 636.244 385.353 639.5 382.647 644.652V637.132H373.914V670.704ZM415.489 661.29C415.489 668.336 418.625 671.592 426.436 671.356C429.326 671.356 432.278 670.645 433.508 670.171V664.073C432.77 664.31 431.048 664.546 430.126 664.546C426.743 664.546 424.775 663.362 424.775 659.869V643.941H434V637.132H425.021V626.592H416.719L416.227 633.165C415.981 636.895 414.013 637.606 411.86 637.606H409.154V644.178H415.489V661.29ZM170.657 615.875H174.285V604.625H178.406V601.842H166.721V604.625H170.595V615.875H170.657ZM185.232 615.875H190.091L192.305 605.81L194.519 615.875H199.377L202.514 601.842H198.885L196.425 612.382L194.211 601.842H189.845L187.631 612.382L185.417 601.842H181.788L185.232 615.875ZM206.696 615.875H210.324V601.842H206.696V615.875ZM215.921 615.875H225.392V612.856H219.549V601.842H215.921V615.875ZM229.82 615.875H233.448V601.842H229.82V615.875ZM247.778 608.829C247.778 611.849 246.548 613.27 244.887 613.27C243.165 613.27 241.997 612.086 241.997 608.829V608.592C241.997 605.336 242.981 604.152 244.887 604.152C246.609 604.152 247.778 605.573 247.778 608.829ZM238.061 608.829C238.061 613.507 240.521 616.112 244.641 616.112C248.762 616.112 251.468 613.329 251.468 608.829V608.592C251.468 603.915 248.762 601.31 244.887 601.31C240.767 601.31 238.061 604.092 238.061 608.592V608.829Z" fill="white"></path>
<path d="M135.356 631.803H96.9185C95.4425 631.803 94.2125 630.618 94.2125 629.197V624.757C94.2125 623.336 95.4425 622.151 96.9185 622.151H135.602C137.078 622.151 138.308 623.336 138.308 624.757V629.197C138.001 630.618 136.832 631.803 135.356 631.803ZM106.144 650.513C107.62 650.513 108.85 649.329 109.034 648.145V643.704C109.034 642.283 107.804 641.099 106.328 641.099H67.706C66.23 641.099 65 642.283 65 643.467V647.908C65 649.329 66.23 650.513 67.706 650.513H106.144ZM79.637 657.559C76.931 657.559 74.7785 659.632 74.7785 662.237C74.7785 664.842 76.931 666.914 79.637 666.914C82.343 666.914 84.4955 664.842 84.4955 662.237C84.4955 659.632 82.2815 657.559 79.637 657.559ZM123.425 605.987C120.719 605.987 118.567 608.059 118.567 610.664C118.567 613.27 120.719 615.342 123.425 615.342C126.131 615.342 128.284 613.27 128.284 610.664C128.284 608.118 126.131 605.987 123.425 605.987ZM101.531 664.605C98.825 664.605 96.1805 664.132 93.7205 663.421C92.4905 663.184 91.2605 663.658 90.83 664.842L89.108 669.283C88.616 670.467 89.354 671.888 90.83 672.303C94.2125 673.487 97.9025 673.961 101.531 673.961C117.337 673.961 130.99 664.842 137.078 651.697C137.57 650.513 137.078 648.914 135.602 648.441L130.99 646.783C129.76 646.309 128.53 646.783 128.099 647.967C123.425 657.796 113.462 664.605 101.531 664.605ZM101.531 608.355C104.237 608.355 106.882 608.829 109.342 609.539C110.572 609.776 111.802 609.303 112.232 608.118L113.954 603.678C114.446 602.493 113.708 601.072 112.232 600.658C108.85 599.474 105.16 599 101.531 599C85.7255 599 72.0725 608.118 65.984 621.263C65.492 622.447 65.984 624.046 67.46 624.52L72.0725 626.178C73.3025 626.651 74.5325 626.178 74.963 624.993C79.637 615.164 89.6 608.355 101.531 608.355Z" fill="#25C365"></path>
<rect x="504" y="552" width="359" height="200" fill="url(#pattern0_1756_240)"></rect>
<rect x="879" y="601" width="384" height="87" fill="url(#pattern1_1756_240)"></rect>
<defs>
<pattern id="pattern0_1756_240" patternContentUnits="objectBoundingBox" width="1" height="1">
<use xlink:href="#image0_1756_240" transform="matrix(0.00239479 0 0 0.00429872 0 -0.000801165)"></use>
</pattern>
<pattern id="pattern1_1756_240" patternContentUnits="objectBoundingBox" width="1" height="1">
<use xlink:href="#image1_1756_240" transform="matrix(0.000244668 0 0 0.00107991 -0.00107991 0)"></use>
</pattern>
<image id="image0_1756_240" width="721" height="233" preserveAspectRatio="none"></image>
<image id="image1_1756_240" width="4096" height="926" preserveAspectRatio="none"></image>
</defs>
</svg>