<svg width="1915" height="1081" viewBox="0 0 1915 1081" fill="none" xmlns="http://www.w3.org/2000/svg" xmlns:xlink="http://www.w3.org/1999/xlink">
<rect width="1915" height="1081" rx="40" fill="#F8F8F8"></rect>
<path d="M830.988 724.649L786.288 692.225V714.655L830.988 746.894V724.695V724.649Z" fill="#FF6492"></path>
<path d="M830.988 747.285L817.534 757.102L786.031 734.319L768.055 747.285L754.527 738.163L786.031 714.825L830.951 747.239L830.988 747.285Z" fill="#141446"></path>
<path d="M768.055 747.276L754.527 738.148V757.1L768.018 747.276H768.055Z" fill="#A14474"></path>
<path d="M741 788.988L785.994 757.099L830.989 788.988L785.994 821.244L741 788.988Z" fill="#141446"></path>
<path d="M830.988 766.783L786.288 733.776V756.908L830.988 789.173V766.783Z" fill="#FF6492"></path>
<path d="M754.553 756.979V738.062L786.288 714.75V692.225L741 724.787V789.171L786.288 756.979V733.853L754.553 756.979Z" fill="#7A77FF"></path>
<path d="M926.419 731.308C926.659 731.308 926.866 731.401 927.039 731.588L928.719 733.428C927.546 734.814 926.112 735.888 924.419 736.648C922.739 737.408 920.712 737.788 918.339 737.788C916.259 737.788 914.372 737.428 912.679 736.708C910.999 735.988 909.559 734.981 908.359 733.688C907.172 732.394 906.252 730.848 905.599 729.048C904.946 727.248 904.619 725.268 904.619 723.108C904.619 720.948 904.959 718.968 905.639 717.168C906.332 715.368 907.299 713.821 908.539 712.528C909.779 711.234 911.259 710.228 912.979 709.508C914.712 708.788 916.626 708.428 918.719 708.428C920.759 708.428 922.572 708.761 924.159 709.428C925.746 710.094 927.126 710.981 928.299 712.088L926.899 714.068C926.806 714.214 926.686 714.334 926.539 714.428C926.406 714.521 926.226 714.568 925.999 714.568C925.746 714.568 925.446 714.441 925.099 714.188C924.766 713.934 924.319 713.654 923.759 713.348C923.212 713.028 922.532 712.741 921.719 712.488C920.906 712.234 919.892 712.108 918.679 712.108C917.252 712.108 915.946 712.361 914.759 712.868C913.572 713.361 912.546 714.081 911.679 715.028C910.826 715.961 910.159 717.114 909.679 718.488C909.212 719.848 908.979 721.388 908.979 723.108C908.979 724.854 909.226 726.408 909.719 727.768C910.212 729.128 910.892 730.281 911.759 731.228C912.626 732.174 913.646 732.894 914.819 733.388C915.992 733.881 917.259 734.128 918.619 734.128C919.446 734.128 920.186 734.081 920.839 733.988C921.506 733.881 922.112 733.728 922.659 733.528C923.219 733.328 923.746 733.074 924.239 732.768C924.732 732.448 925.219 732.068 925.699 731.628C925.806 731.534 925.919 731.461 926.039 731.408C926.159 731.341 926.286 731.308 926.419 731.308ZM948.787 717.148V737.468H946.447C945.914 737.468 945.567 737.208 945.407 736.688L945.127 734.648C944.687 735.114 944.227 735.541 943.747 735.928C943.267 736.314 942.754 736.648 942.207 736.928C941.661 737.194 941.081 737.401 940.467 737.548C939.854 737.708 939.194 737.788 938.487 737.788C937.367 737.788 936.381 737.601 935.527 737.228C934.687 736.854 933.981 736.334 933.407 735.668C932.834 734.988 932.401 734.174 932.107 733.228C931.814 732.281 931.667 731.234 931.667 730.088V717.148H935.587V730.088C935.587 731.541 935.921 732.674 936.587 733.488C937.254 734.288 938.274 734.688 939.647 734.688C940.647 734.688 941.581 734.454 942.447 733.988C943.314 733.508 944.127 732.854 944.887 732.028V717.148H948.787ZM958.131 732.468C958.771 733.308 959.464 733.894 960.211 734.228C960.958 734.561 961.771 734.728 962.651 734.728C964.464 734.728 965.858 734.081 966.831 732.788C967.818 731.494 968.311 729.541 968.311 726.928C968.311 724.514 967.878 722.748 967.011 721.628C966.144 720.494 964.918 719.928 963.331 719.928C962.211 719.928 961.238 720.181 960.411 720.688C959.598 721.194 958.838 721.914 958.131 722.848V732.468ZM958.131 719.948C958.971 719.014 959.924 718.261 960.991 717.688C962.058 717.114 963.271 716.828 964.631 716.828C965.818 716.828 966.884 717.061 967.831 717.528C968.791 717.981 969.604 718.641 970.271 719.508C970.938 720.361 971.451 721.401 971.811 722.628C972.171 723.854 972.351 725.241 972.351 726.788C972.351 728.428 972.144 729.921 971.731 731.268C971.331 732.614 970.751 733.768 969.991 734.728C969.244 735.688 968.331 736.434 967.251 736.968C966.171 737.488 964.958 737.748 963.611 737.748C962.958 737.748 962.358 737.681 961.811 737.548C961.264 737.428 960.758 737.248 960.291 737.008C959.838 736.768 959.418 736.474 959.031 736.128C958.644 735.781 958.278 735.388 957.931 734.948L957.751 736.648C957.644 737.194 957.311 737.468 956.751 737.468H954.231V707.948H958.131V719.948ZM990.152 725.048C990.152 724.274 990.039 723.561 989.812 722.908C989.599 722.254 989.279 721.688 988.852 721.208C988.425 720.728 987.905 720.354 987.292 720.088C986.679 719.821 985.972 719.688 985.172 719.688C983.532 719.688 982.239 720.161 981.292 721.108C980.359 722.054 979.765 723.368 979.512 725.048H990.152ZM993.372 734.568C992.892 735.128 992.339 735.614 991.712 736.028C991.085 736.428 990.419 736.754 989.712 737.008C989.005 737.261 988.272 737.448 987.512 737.568C986.765 737.688 986.025 737.748 985.292 737.748C983.892 737.748 982.592 737.514 981.392 737.048C980.205 736.568 979.172 735.874 978.292 734.968C977.425 734.048 976.745 732.914 976.252 731.568C975.772 730.208 975.532 728.648 975.532 726.888C975.532 725.474 975.752 724.161 976.192 722.948C976.632 721.721 977.259 720.654 978.072 719.748C978.899 718.841 979.905 718.128 981.092 717.608C982.279 717.088 983.612 716.828 985.092 716.828C986.332 716.828 987.472 717.034 988.512 717.448C989.565 717.848 990.472 718.434 991.232 719.208C991.992 719.981 992.585 720.934 993.012 722.068C993.452 723.201 993.672 724.494 993.672 725.948C993.672 726.548 993.605 726.954 993.472 727.168C993.339 727.368 993.092 727.468 992.732 727.468H979.412C979.452 728.681 979.625 729.741 979.932 730.648C980.239 731.541 980.659 732.288 981.192 732.888C981.739 733.488 982.385 733.934 983.132 734.228C983.879 734.521 984.712 734.668 985.632 734.668C986.499 734.668 987.245 734.568 987.872 734.368C988.512 734.168 989.059 733.954 989.512 733.728C989.979 733.488 990.365 733.268 990.672 733.068C990.992 732.868 991.272 732.768 991.512 732.768C991.832 732.768 992.079 732.888 992.252 733.128L993.372 734.568ZM1017.48 723.528C1018.56 723.528 1019.51 723.388 1020.32 723.108C1021.15 722.828 1021.83 722.434 1022.38 721.928C1022.94 721.408 1023.36 720.794 1023.64 720.088C1023.92 719.368 1024.06 718.574 1024.06 717.708C1024.06 715.961 1023.51 714.588 1022.42 713.588C1021.34 712.588 1019.69 712.088 1017.48 712.088H1013.04V723.528H1017.48ZM1017.48 708.748C1019.32 708.748 1020.92 708.961 1022.28 709.388C1023.64 709.814 1024.77 710.421 1025.66 711.208C1026.55 711.981 1027.21 712.921 1027.64 714.028C1028.08 715.134 1028.3 716.361 1028.3 717.708C1028.3 719.054 1028.07 720.294 1027.6 721.428C1027.13 722.548 1026.45 723.514 1025.54 724.328C1024.63 725.141 1023.5 725.774 1022.14 726.228C1020.79 726.668 1019.24 726.888 1017.48 726.888H1013.04V737.468H1008.78V708.748H1017.48ZM1042.49 728.448C1040.91 728.501 1039.56 728.628 1038.45 728.828C1037.35 729.014 1036.45 729.268 1035.75 729.588C1035.06 729.908 1034.56 730.288 1034.25 730.728C1033.95 731.154 1033.79 731.634 1033.79 732.168C1033.79 732.674 1033.87 733.114 1034.03 733.488C1034.21 733.848 1034.43 734.148 1034.71 734.388C1035.01 734.614 1035.35 734.781 1035.73 734.888C1036.12 734.994 1036.54 735.048 1036.99 735.048C1037.59 735.048 1038.14 734.988 1038.63 734.868C1039.14 734.748 1039.61 734.581 1040.05 734.368C1040.49 734.141 1040.91 733.868 1041.31 733.548C1041.71 733.228 1042.11 732.861 1042.49 732.448V728.448ZM1031.05 719.988C1032.19 718.908 1033.41 718.101 1034.73 717.568C1036.07 717.034 1037.53 716.768 1039.11 716.768C1040.27 716.768 1041.3 716.961 1042.19 717.348C1043.09 717.721 1043.84 718.248 1044.45 718.928C1045.07 719.608 1045.53 720.421 1045.83 721.368C1046.15 722.314 1046.31 723.361 1046.31 724.508V737.468H1044.57C1044.19 737.468 1043.89 737.408 1043.69 737.288C1043.49 737.154 1043.33 736.914 1043.21 736.568L1042.79 734.788C1042.27 735.268 1041.76 735.694 1041.25 736.068C1040.75 736.428 1040.21 736.741 1039.65 737.008C1039.11 737.261 1038.52 737.454 1037.89 737.588C1037.27 737.721 1036.57 737.788 1035.81 737.788C1035.01 737.788 1034.26 737.681 1033.55 737.468C1032.86 737.241 1032.25 736.901 1031.73 736.448C1031.21 735.994 1030.8 735.428 1030.49 734.748C1030.2 734.068 1030.05 733.274 1030.05 732.368C1030.05 731.568 1030.27 730.801 1030.69 730.068C1031.13 729.321 1031.84 728.654 1032.81 728.068C1033.8 727.481 1035.08 727.001 1036.65 726.628C1038.24 726.254 1040.19 726.041 1042.49 725.988V724.508C1042.49 722.974 1042.17 721.828 1041.51 721.068C1040.86 720.308 1039.9 719.928 1038.63 719.928C1037.78 719.928 1037.06 720.034 1036.47 720.248C1035.9 720.461 1035.4 720.701 1034.97 720.968C1034.56 721.221 1034.19 721.454 1033.87 721.668C1033.57 721.881 1033.25 721.988 1032.91 721.988C1032.65 721.988 1032.41 721.914 1032.21 721.768C1032.03 721.621 1031.87 721.448 1031.75 721.248L1031.05 719.988ZM1055.22 721.048C1055.87 719.714 1056.66 718.668 1057.58 717.908C1058.5 717.148 1059.6 716.768 1060.9 716.768C1061.34 716.768 1061.75 716.821 1062.14 716.928C1062.54 717.021 1062.88 717.168 1063.18 717.368L1062.92 720.308C1062.82 720.668 1062.6 720.848 1062.26 720.848C1062.07 720.848 1061.79 720.814 1061.42 720.748C1061.04 720.668 1060.64 720.628 1060.22 720.628C1059.59 720.628 1059.04 720.721 1058.56 720.908C1058.08 721.081 1057.64 721.348 1057.26 721.708C1056.88 722.054 1056.55 722.488 1056.26 723.008C1055.96 723.514 1055.69 724.094 1055.44 724.748V737.468H1051.54V717.148H1053.78C1054.2 717.148 1054.49 717.228 1054.64 717.388C1054.8 717.534 1054.91 717.801 1054.98 718.188L1055.22 721.048ZM1072.54 737.788C1070.9 737.788 1069.64 737.328 1068.74 736.408C1067.86 735.488 1067.42 734.174 1067.42 732.468V720.308H1065.06C1064.84 720.308 1064.64 720.241 1064.48 720.108C1064.34 719.961 1064.26 719.748 1064.26 719.468V717.888L1067.56 717.428L1068.44 711.368C1068.5 711.141 1068.6 710.968 1068.74 710.848C1068.9 710.714 1069.1 710.648 1069.34 710.648H1071.32V717.468H1077.08V720.308H1071.32V732.208C1071.32 733.008 1071.52 733.608 1071.9 734.008C1072.3 734.394 1072.81 734.588 1073.42 734.588C1073.78 734.588 1074.09 734.541 1074.34 734.448C1074.61 734.354 1074.84 734.254 1075.02 734.148C1075.21 734.028 1075.37 733.921 1075.5 733.828C1075.64 733.734 1075.76 733.688 1075.86 733.688C1076 733.688 1076.1 733.721 1076.16 733.788C1076.24 733.841 1076.32 733.934 1076.4 734.068L1077.56 735.948C1076.92 736.534 1076.16 736.988 1075.28 737.308C1074.4 737.628 1073.49 737.788 1072.54 737.788ZM1084.34 719.968C1084.78 719.501 1085.24 719.074 1085.72 718.688C1086.2 718.301 1086.7 717.974 1087.24 717.708C1087.78 717.428 1088.36 717.214 1088.98 717.068C1089.6 716.908 1090.27 716.828 1090.98 716.828C1092.1 716.828 1093.08 717.014 1093.92 717.388C1094.77 717.761 1095.48 718.288 1096.06 718.968C1096.63 719.634 1097.06 720.441 1097.36 721.388C1097.65 722.334 1097.8 723.381 1097.8 724.528V737.468H1093.88V724.528C1093.88 723.074 1093.54 721.948 1092.88 721.148C1092.21 720.334 1091.19 719.928 1089.82 719.928C1088.82 719.928 1087.88 720.168 1087 720.648C1086.13 721.114 1085.32 721.754 1084.58 722.568V737.468H1080.68V717.148H1083.02C1083.56 717.148 1083.9 717.408 1084.04 717.928L1084.34 719.968ZM1116.52 725.048C1116.52 724.274 1116.41 723.561 1116.18 722.908C1115.97 722.254 1115.65 721.688 1115.22 721.208C1114.79 720.728 1114.27 720.354 1113.66 720.088C1113.05 719.821 1112.34 719.688 1111.54 719.688C1109.9 719.688 1108.61 720.161 1107.66 721.108C1106.73 722.054 1106.13 723.368 1105.88 725.048H1116.52ZM1119.74 734.568C1119.26 735.128 1118.71 735.614 1118.08 736.028C1117.45 736.428 1116.79 736.754 1116.08 737.008C1115.37 737.261 1114.64 737.448 1113.88 737.568C1113.13 737.688 1112.39 737.748 1111.66 737.748C1110.26 737.748 1108.96 737.514 1107.76 737.048C1106.57 736.568 1105.54 735.874 1104.66 734.968C1103.79 734.048 1103.11 732.914 1102.62 731.568C1102.14 730.208 1101.9 728.648 1101.9 726.888C1101.9 725.474 1102.12 724.161 1102.56 722.948C1103 721.721 1103.63 720.654 1104.44 719.748C1105.27 718.841 1106.27 718.128 1107.46 717.608C1108.65 717.088 1109.98 716.828 1111.46 716.828C1112.7 716.828 1113.84 717.034 1114.88 717.448C1115.93 717.848 1116.84 718.434 1117.6 719.208C1118.36 719.981 1118.95 720.934 1119.38 722.068C1119.82 723.201 1120.04 724.494 1120.04 725.948C1120.04 726.548 1119.97 726.954 1119.84 727.168C1119.71 727.368 1119.46 727.468 1119.1 727.468H1105.78C1105.82 728.681 1105.99 729.741 1106.3 730.648C1106.61 731.541 1107.03 732.288 1107.56 732.888C1108.11 733.488 1108.75 733.934 1109.5 734.228C1110.25 734.521 1111.08 734.668 1112 734.668C1112.87 734.668 1113.61 734.568 1114.24 734.368C1114.88 734.168 1115.43 733.954 1115.88 733.728C1116.35 733.488 1116.73 733.268 1117.04 733.068C1117.36 732.868 1117.64 732.768 1117.88 732.768C1118.2 732.768 1118.45 732.888 1118.62 733.128L1119.74 734.568ZM1127.91 721.048C1128.56 719.714 1129.35 718.668 1130.27 717.908C1131.19 717.148 1132.3 716.768 1133.59 716.768C1134.03 716.768 1134.44 716.821 1134.83 716.928C1135.23 717.021 1135.58 717.168 1135.87 717.368L1135.61 720.308C1135.52 720.668 1135.3 720.848 1134.95 720.848C1134.76 720.848 1134.48 720.814 1134.11 720.748C1133.74 720.668 1133.34 720.628 1132.91 720.628C1132.28 720.628 1131.73 720.721 1131.25 720.908C1130.77 721.081 1130.34 721.348 1129.95 721.708C1129.58 722.054 1129.24 722.488 1128.95 723.008C1128.66 723.514 1128.38 724.094 1128.13 724.748V737.468H1124.23V717.148H1126.47C1126.9 717.148 1127.18 717.228 1127.33 717.388C1127.49 717.534 1127.6 717.801 1127.67 718.188L1127.91 721.048ZM929.879 756.748V785.468H927.719C927.386 785.468 927.106 785.408 926.879 785.288C926.666 785.168 926.446 784.974 926.219 784.708L909.999 763.728C910.026 764.088 910.046 764.441 910.059 764.788C910.086 765.134 910.099 765.461 910.099 765.768V785.468H906.359V756.748H908.559C908.932 756.748 909.212 756.794 909.399 756.888C909.586 756.968 909.792 757.161 910.019 757.468L926.279 778.468C926.239 778.081 926.206 777.708 926.179 777.348C926.166 776.974 926.159 776.628 926.159 776.308V756.748H929.879ZM949.019 773.048C949.019 772.274 948.906 771.561 948.679 770.908C948.466 770.254 948.146 769.688 947.719 769.208C947.292 768.728 946.772 768.354 946.159 768.088C945.546 767.821 944.839 767.688 944.039 767.688C942.399 767.688 941.106 768.161 940.159 769.108C939.226 770.054 938.632 771.368 938.379 773.048H949.019ZM952.239 782.568C951.759 783.128 951.206 783.614 950.579 784.028C949.952 784.428 949.286 784.754 948.579 785.008C947.872 785.261 947.139 785.448 946.379 785.568C945.632 785.688 944.892 785.748 944.159 785.748C942.759 785.748 941.459 785.514 940.259 785.048C939.072 784.568 938.039 783.874 937.159 782.968C936.292 782.048 935.612 780.914 935.119 779.568C934.639 778.208 934.399 776.648 934.399 774.888C934.399 773.474 934.619 772.161 935.059 770.948C935.499 769.721 936.126 768.654 936.939 767.748C937.766 766.841 938.772 766.128 939.959 765.608C941.146 765.088 942.479 764.828 943.959 764.828C945.199 764.828 946.339 765.034 947.379 765.448C948.432 765.848 949.339 766.434 950.099 767.208C950.859 767.981 951.452 768.934 951.879 770.068C952.319 771.201 952.539 772.494 952.539 773.948C952.539 774.548 952.472 774.954 952.339 775.168C952.206 775.368 951.959 775.468 951.599 775.468H938.279C938.319 776.681 938.492 777.741 938.799 778.648C939.106 779.541 939.526 780.288 940.059 780.888C940.606 781.488 941.252 781.934 941.999 782.228C942.746 782.521 943.579 782.668 944.499 782.668C945.366 782.668 946.112 782.568 946.739 782.368C947.379 782.168 947.926 781.954 948.379 781.728C948.846 781.488 949.232 781.268 949.539 781.068C949.859 780.868 950.139 780.768 950.379 780.768C950.699 780.768 950.946 780.888 951.119 781.128L952.239 782.568ZM962.935 785.788C961.295 785.788 960.028 785.328 959.135 784.408C958.255 783.488 957.815 782.174 957.815 780.468V768.308H955.455C955.228 768.308 955.035 768.241 954.875 768.108C954.728 767.961 954.655 767.748 954.655 767.468V765.888L957.955 765.428L958.835 759.368C958.888 759.141 958.988 758.968 959.135 758.848C959.295 758.714 959.495 758.648 959.735 758.648H961.715V765.468H967.475V768.308H961.715V780.208C961.715 781.008 961.908 781.608 962.295 782.008C962.695 782.394 963.201 782.588 963.815 782.588C964.175 782.588 964.481 782.541 964.735 782.448C965.001 782.354 965.228 782.254 965.415 782.148C965.601 782.028 965.761 781.921 965.895 781.828C966.028 781.734 966.148 781.688 966.255 781.688C966.388 781.688 966.488 781.721 966.555 781.788C966.635 781.841 966.715 781.934 966.795 782.068L967.955 783.948C967.315 784.534 966.555 784.988 965.675 785.308C964.795 785.628 963.881 785.788 962.935 785.788ZM999.327 765.148L992.787 785.468H989.667C989.294 785.468 989.04 785.221 988.907 784.728L984.627 771.488C984.52 771.154 984.427 770.828 984.347 770.508C984.267 770.174 984.194 769.841 984.127 769.508C984.007 770.201 983.84 770.874 983.627 771.528L979.287 784.728C979.154 785.221 978.867 785.468 978.427 785.468H975.467L968.907 765.148H971.987C972.294 765.148 972.547 765.221 972.747 765.368C972.96 765.514 973.1 765.701 973.167 765.928L976.827 778.408C976.947 778.914 977.054 779.408 977.147 779.888C977.24 780.368 977.327 780.848 977.407 781.328C977.527 780.848 977.654 780.368 977.787 779.888C977.934 779.408 978.08 778.914 978.227 778.408L982.287 765.848C982.354 765.621 982.48 765.441 982.667 765.308C982.854 765.161 983.08 765.088 983.347 765.088H985.047C985.34 765.088 985.58 765.161 985.767 765.308C985.967 765.441 986.1 765.621 986.167 765.848L990.127 778.408C990.274 778.914 990.414 779.414 990.547 779.908C990.68 780.388 990.8 780.874 990.907 781.368C990.987 780.888 991.08 780.408 991.187 779.928C991.294 779.434 991.414 778.928 991.547 778.408L995.267 765.928C995.334 765.701 995.467 765.514 995.667 765.368C995.88 765.221 996.12 765.148 996.387 765.148H999.327ZM1010.98 764.828C1012.47 764.828 1013.82 765.074 1015.02 765.568C1016.23 766.048 1017.26 766.748 1018.1 767.668C1018.95 768.574 1019.6 769.674 1020.06 770.968C1020.51 772.248 1020.74 773.688 1020.74 775.288C1020.74 776.888 1020.51 778.334 1020.06 779.628C1019.6 780.921 1018.95 782.021 1018.1 782.928C1017.26 783.834 1016.23 784.534 1015.02 785.028C1013.82 785.508 1012.47 785.748 1010.98 785.748C1009.47 785.748 1008.11 785.508 1006.9 785.028C1005.7 784.534 1004.67 783.834 1003.82 782.928C1002.96 782.021 1002.3 780.921 1001.84 779.628C1001.38 778.334 1001.16 776.888 1001.16 775.288C1001.16 773.688 1001.38 772.248 1001.84 770.968C1002.3 769.674 1002.96 768.574 1003.82 767.668C1004.67 766.748 1005.7 766.048 1006.9 765.568C1008.11 765.074 1009.47 764.828 1010.98 764.828ZM1010.98 782.708C1012.9 782.708 1014.33 782.061 1015.28 780.768C1016.22 779.474 1016.7 777.654 1016.7 775.308C1016.7 772.961 1016.22 771.141 1015.28 769.848C1014.33 768.541 1012.9 767.888 1010.98 767.888C1009.03 767.888 1007.58 768.541 1006.62 769.848C1005.67 771.141 1005.2 772.961 1005.2 775.308C1005.2 777.654 1005.67 779.474 1006.62 780.768C1007.58 782.061 1009.03 782.708 1010.98 782.708ZM1028.77 769.048C1029.42 767.714 1030.21 766.668 1031.13 765.908C1032.05 765.148 1033.16 764.768 1034.45 764.768C1034.89 764.768 1035.3 764.821 1035.69 764.928C1036.09 765.021 1036.44 765.168 1036.73 765.368L1036.47 768.308C1036.38 768.668 1036.16 768.848 1035.81 768.848C1035.62 768.848 1035.34 768.814 1034.97 768.748C1034.6 768.668 1034.2 768.628 1033.77 768.628C1033.14 768.628 1032.59 768.721 1032.11 768.908C1031.63 769.081 1031.2 769.348 1030.81 769.708C1030.44 770.054 1030.1 770.488 1029.81 771.008C1029.52 771.514 1029.24 772.094 1028.99 772.748V785.468H1025.09V765.148H1027.33C1027.76 765.148 1028.04 765.228 1028.19 765.388C1028.35 765.534 1028.46 765.801 1028.53 766.188L1028.77 769.048ZM1043.64 755.948V773.208H1044.56C1044.84 773.208 1045.07 773.168 1045.26 773.088C1045.45 773.008 1045.64 772.848 1045.84 772.608L1051.92 765.908C1052.11 765.654 1052.31 765.468 1052.54 765.348C1052.77 765.214 1053.05 765.148 1053.4 765.148H1056.96L1049.78 773.008C1049.39 773.501 1048.98 773.881 1048.54 774.148C1048.79 774.321 1049.01 774.521 1049.2 774.748C1049.4 774.974 1049.59 775.221 1049.78 775.488L1057.42 785.468H1053.92C1053.6 785.468 1053.32 785.414 1053.08 785.308C1052.85 785.201 1052.65 785.008 1052.46 784.728L1046.18 776.568C1045.98 776.261 1045.78 776.068 1045.58 775.988C1045.38 775.894 1045.08 775.848 1044.68 775.848H1043.64V785.468H1039.74V755.948H1043.64Z" fill="#141446"></path>
<line x1="874.876" y1="667" x2="874.876" y2="828.819" stroke="white" stroke-width="5"></line>
<path d="M365.341 709.487V774.998H352.059V768.316C350.673 770.662 348.67 772.569 346.241 773.778C343.635 775.081 340.684 775.768 337.734 775.768C334.085 775.851 330.447 774.809 327.402 772.735C324.274 770.65 321.845 767.794 320.281 764.405C318.551 760.495 317.674 756.337 317.769 752.083C317.686 747.829 318.551 743.67 320.281 739.843C321.845 736.549 324.274 733.682 327.307 731.691C330.435 729.701 334.073 728.741 337.722 728.824C340.59 728.824 343.445 729.428 345.969 730.731C348.398 731.952 350.4 733.765 351.787 736.028V713.894L365.33 709.463L365.341 709.487ZM349.369 762.071C351.099 759.82 352.059 756.514 352.059 752.261C352.059 748.007 351.194 744.796 349.369 742.545C347.545 740.293 344.677 738.99 341.739 739.073C338.789 738.895 335.921 740.199 334.013 742.462C332.189 744.713 331.241 747.924 331.241 752.095C331.241 756.265 332.201 759.642 334.013 761.988C335.838 764.334 338.789 765.638 341.739 765.543C345.033 765.543 347.639 764.323 349.369 762.071ZM412.807 731.608C415.935 733.599 418.364 736.466 419.834 739.76C421.564 743.575 422.44 747.746 422.346 752C422.429 756.254 421.564 760.507 419.834 764.323C418.27 767.711 415.841 770.567 412.713 772.652C409.679 774.643 406.03 775.685 402.392 775.603C399.442 775.685 396.492 774.998 393.885 773.612C391.456 772.391 389.454 770.484 388.162 768.15V774.915H374.797V713.906L388.245 709.475V736.206C389.548 733.86 391.539 731.952 393.968 730.743C396.575 729.357 399.43 728.658 402.381 728.753C406.03 728.67 409.667 729.712 412.796 731.62L412.807 731.608ZM406.208 761.976C408.032 759.63 408.897 756.337 408.897 752C408.897 747.663 408.032 744.618 406.208 742.367C404.383 740.116 401.871 738.978 398.577 738.978C395.627 738.8 392.759 740.104 390.852 742.45C389.027 744.796 388.162 748.007 388.162 752.166C388.162 756.325 389.027 759.713 390.852 761.976C392.676 764.323 395.532 765.626 398.577 765.448C401.527 765.626 404.395 764.323 406.208 761.976ZM440.924 739.938H452.382V729.866H440.924V714.937L427.476 719.274V757.711C427.476 763.434 428.957 767.865 431.908 770.993C434.858 774.121 439.112 775.674 444.669 775.674C447.275 775.757 449.87 775.33 452.394 774.453V764.038C451.008 764.382 449.444 764.642 447.963 764.642C446.055 764.725 444.23 764.121 442.844 762.913C441.623 761.787 440.936 759.962 440.936 757.45V739.926L440.924 739.938ZM365.341 709.475V774.986H352.059V768.304C350.673 770.65 348.67 772.557 346.241 773.766C343.635 775.069 340.684 775.757 337.734 775.757C334.085 775.839 330.447 774.797 327.402 772.723C324.274 770.638 321.845 767.782 320.281 764.394C318.551 760.484 317.674 756.325 317.769 752.071C317.686 747.817 318.551 743.658 320.281 739.831C321.845 736.537 324.274 733.67 327.307 731.679C330.435 729.689 334.073 728.729 337.722 728.812C340.59 728.812 343.445 729.416 345.969 730.72C348.398 731.94 350.4 733.753 351.787 736.016V713.883L365.33 709.451L365.341 709.475ZM349.369 762.059C351.099 759.808 352.059 756.502 352.059 752.249C352.059 747.995 351.194 744.784 349.369 742.533C347.545 740.282 344.677 738.978 341.739 739.061C338.789 738.883 335.921 740.187 334.013 742.45C332.189 744.701 331.241 747.912 331.241 752.083C331.241 756.254 332.201 759.63 334.013 761.976C335.838 764.323 338.789 765.626 341.739 765.531C345.033 765.531 347.639 764.311 349.369 762.059ZM412.807 731.596C415.935 733.587 418.364 736.454 419.834 739.748C421.564 743.564 422.44 747.734 422.346 751.988C422.429 756.242 421.564 760.495 419.834 764.311C418.27 767.699 415.841 770.555 412.713 772.64C409.679 774.631 406.03 775.674 402.392 775.591C399.442 775.674 396.492 774.986 393.885 773.6C391.456 772.38 389.454 770.472 388.162 768.138V774.903H374.797V713.894L388.245 709.463V736.194C389.548 733.848 391.539 731.94 393.968 730.731C396.575 729.345 399.43 728.646 402.381 728.741C406.03 728.658 409.667 729.701 412.796 731.608L412.807 731.596ZM406.208 761.965C408.032 759.619 408.897 756.325 408.897 751.988C408.897 747.651 408.032 744.606 406.208 742.355C404.383 740.104 401.871 738.966 398.577 738.966C395.627 738.789 392.759 740.092 390.852 742.438C389.027 744.784 388.162 747.995 388.162 752.154C388.162 756.313 389.027 759.702 390.852 761.965C392.676 764.311 395.532 765.614 398.577 765.436C401.527 765.614 404.395 764.311 406.208 761.965ZM440.924 739.926H452.382V729.855H440.924V714.925L427.476 719.262V757.699C427.476 763.422 428.957 767.853 431.908 770.982C434.858 774.11 439.112 775.662 444.669 775.662C447.275 775.745 449.87 775.318 452.394 774.441V764.026C451.008 764.37 449.444 764.631 447.963 764.631C446.055 764.714 444.23 764.109 442.844 762.901C441.623 761.775 440.936 759.95 440.936 757.438V739.914L440.924 739.926ZM575.466 731.087C570.703 731.087 565.94 733.67 562.042 737.035L562.279 729.381V711.702L555.051 715.992V774.986H561.485V770.484C565.277 773.908 569.933 775.958 573.914 775.958C583.689 775.958 592.422 767.451 592.422 752.841C592.446 739.665 586.509 731.087 575.466 731.087ZM584.543 757.901C584.377 760.164 583.784 762.379 582.789 764.417C582.41 765.128 581.971 765.815 581.474 766.443C580.822 767.225 580.052 767.889 579.187 768.422C577.433 769.417 575.443 769.915 573.428 769.856H573.037C571.153 769.856 569.305 769.37 567.67 768.434C566.805 767.901 566.035 767.237 565.383 766.455C564.886 765.827 564.435 765.14 564.068 764.429C563.037 762.308 562.433 760.01 562.291 757.664C562.148 756.277 562.101 754.867 562.101 753.528C562.101 752.189 562.16 750.768 562.291 749.393C562.433 747.035 563.025 744.725 564.056 742.604C564.34 742.071 564.66 741.561 565.004 741.064L565.359 740.601C566.011 739.819 566.781 739.156 567.646 738.623C569.412 737.639 571.414 737.165 573.428 737.236H573.582C574.045 737.236 574.507 737.236 574.981 737.319L575.609 737.402C575.857 737.438 576.094 737.485 576.343 737.544L576.711 737.627L576.971 737.687L577.41 737.829C578.038 738.042 578.642 738.326 579.211 738.67C580.076 739.203 580.846 739.867 581.497 740.649C581.995 741.253 582.433 741.917 582.813 742.604C584.353 745.376 584.791 749.713 584.791 753.517C584.791 754.986 584.72 756.455 584.578 757.912L584.543 757.901ZM481.945 768.707V717.271V711.762L474.598 716.229V717.236V774.939H507.135V768.718H481.945V768.707ZM511.27 763.872C511.27 754.559 519.304 749.926 537.527 747.924C537.527 742.426 535.678 737.118 528.7 737.118C523.759 737.118 519.304 739.452 515.95 741.703L513.119 736.751C517.052 734.168 523.048 731.158 529.92 731.158C540.359 731.158 544.766 738.101 544.766 748.741V774.975H538.096V769.856C534.02 773.245 529.02 776.017 523.723 776.017C516.649 776.017 511.282 771.621 511.282 763.86L511.27 763.872ZM537.527 761.159C537.527 760.069 537.278 759.002 536.804 758.031C536.295 757.071 535.667 756.23 534.861 755.519C534.008 754.855 533.344 754.441 532.171 754.097C531.105 753.872 529.695 753.99 528.64 754.251C521.128 756.218 518.332 759.228 518.332 763.363C518.332 768.221 521.638 770.211 525.844 770.211C528.996 770.211 531.733 769.026 534.695 766.858C535.572 766.195 536.295 765.342 536.78 764.346C537.266 763.363 537.527 762.273 537.515 761.171L537.527 761.159ZM595.799 770.069L599.365 765.306C603.074 768.292 606.877 770.365 611.984 770.365C617.589 770.365 620.385 767.368 620.385 763.73C620.385 759.334 615.337 757.379 610.598 755.626C604.614 753.481 597.849 750.483 597.849 743.279C597.849 736.075 603.335 731.134 612.6 731.134C617.446 731.205 622.127 732.9 625.895 735.945L622.435 740.578C619.484 738.433 616.475 736.786 612.683 736.786C607.316 736.786 604.816 739.654 604.816 742.912C604.816 746.976 609.46 748.528 614.306 750.329C620.468 752.652 627.34 755.152 627.34 763.292C627.34 770.235 621.842 776.005 611.747 776.005C605.906 775.899 600.289 773.801 595.799 770.069Z" fill="black"></path>
<path d="M292.887 698.773C295.138 700.941 296.619 703.809 296.963 706.925C296.963 708.228 296.619 709.093 295.837 710.74C295.055 712.387 285.422 729.046 282.555 733.644C280.908 736.333 280.043 739.544 280.043 742.672C280.043 745.801 280.908 749.012 282.555 751.701C285.422 756.299 295.055 773.053 295.837 774.7C296.619 776.347 296.963 777.129 296.963 778.432C296.619 781.56 295.233 784.415 292.97 786.501C290.801 788.752 287.934 790.233 284.901 790.494C283.597 790.494 282.732 790.15 281.168 789.368C279.604 788.586 262.601 779.214 258.004 776.347C257.66 776.169 257.305 775.908 256.878 775.742L234.141 762.294C234.662 766.631 236.57 770.801 239.698 773.835C240.302 774.439 240.918 774.96 241.605 775.482C241.084 775.742 240.48 776.003 239.959 776.347C235.361 779.214 218.607 788.847 216.96 789.629C215.313 790.411 214.531 790.755 213.145 790.755C210.017 790.411 207.161 789.025 205.076 786.762C202.825 784.593 201.344 781.726 201 778.61C201.083 777.306 201.438 776.003 202.126 774.877C202.908 773.23 212.541 756.476 215.408 751.879C217.055 749.189 217.92 746.061 217.92 742.85C217.92 739.639 217.055 736.511 215.408 733.822C212.541 729.046 202.825 712.304 202.126 710.657C201.427 709.532 201.083 708.228 201 706.925C201.344 703.797 202.73 700.941 204.993 698.773C207.161 696.522 210.029 695.124 213.145 694.78C214.448 694.863 215.752 695.218 216.96 695.906C218.346 696.51 230.586 703.631 237.091 707.446L238.572 708.311C239.094 708.655 239.532 708.916 239.876 709.093L240.575 709.532L263.739 723.241C263.218 718.039 260.528 713.264 256.357 710.053C256.878 709.792 257.483 709.532 258.004 709.188C262.601 706.321 279.355 696.605 281.002 695.906C282.128 695.207 283.431 694.863 284.818 694.78C287.851 695.124 290.718 696.51 292.887 698.773ZM250.196 748.929L255.137 743.988C255.836 743.289 255.836 742.258 255.137 741.559L250.196 736.618C249.497 735.919 248.466 735.919 247.767 736.618L242.826 741.559C242.127 742.258 242.127 743.289 242.826 743.988L247.767 748.929C248.371 749.533 249.497 749.533 250.196 748.929Z" fill="#FF694A"></path>
<path d="M1425.42 717V724.843H1403.59V733.312H1423.79V741.155H1403.59V757.467H1393.16V717H1425.42Z" fill="#0073FF"></path>
<path d="M1433.89 717H1443.01V723.901H1433.89V717ZM1433.89 727.352H1443.01V757.467H1433.89V727.352Z" fill="#0073FF"></path>
<path d="M1449.53 727.354H1459.3C1463.21 740.529 1463.87 743.352 1464.84 748.998C1466.15 742.411 1466.15 741.47 1468.1 734.568L1470.06 727.354H1479.51L1469.4 757.154H1459.96L1449.53 727.354Z" fill="#0073FF"></path>
<path d="M1514.04 749.934C1513.07 751.503 1511.76 753.071 1510.13 754.326C1506.87 757.149 1502.64 758.718 1498.4 758.718C1489.28 758.718 1482.76 753.071 1482.76 743.347C1482.76 736.132 1486.35 726.721 1498.73 726.721C1502.96 726.721 1506.87 728.29 1509.81 731.113C1513.72 735.191 1514.04 741.151 1514.37 744.602H1492.21C1492.21 748.366 1494.49 752.13 1499.38 752.13C1504.27 752.13 1506.22 748.993 1507.2 746.798L1514.04 749.934ZM1504.92 738.642C1504.92 737.073 1504.27 735.505 1503.29 734.25C1501.99 733.309 1500.36 732.681 1498.73 732.681C1497.1 732.681 1495.15 733.309 1494.17 734.564C1493.19 735.818 1492.54 737.073 1492.21 738.642H1504.92Z" fill="#0073FF"></path>
<path d="M1523.49 718.885H1532.61V728.295H1538.48V733.628H1532.29V747.117C1532.29 748.999 1532.29 750.567 1534.57 750.567H1537.83V757.469C1536.2 757.782 1534.57 757.782 1532.94 757.782C1529.68 757.782 1526.42 757.469 1524.14 754.959C1522.84 753.077 1522.84 751.195 1522.84 748.058V733.628H1518.28V728.295H1522.84L1523.49 718.885Z" fill="#0073FF"></path>
<path d="M1555.1 730.488C1557.7 728.292 1560.63 727.037 1564.22 727.037V734.88L1561.29 735.193C1556.72 735.821 1555.42 736.448 1555.42 740.212V757.152H1546.3V727.037H1555.1V730.488Z" fill="#0073FF"></path>
<path d="M1570.74 736.134C1570.74 733.625 1572.04 731.115 1573.99 729.547C1576.93 727.351 1580.51 727.037 1584.09 727.037C1587.68 727.037 1597.13 727.978 1597.13 735.507V752.76C1597.13 755.897 1597.45 756.524 1598.1 757.466H1589.31V754.642C1587.03 756.211 1584.42 758.093 1579.86 758.093C1572.69 758.093 1569.76 753.074 1569.76 748.996C1569.76 744.29 1573.67 741.467 1576.27 740.526C1580.18 739.271 1584.42 738.33 1588.66 737.703V736.134C1588.66 734.88 1588.33 732.37 1585.07 732.37C1581.16 732.37 1580.51 734.88 1580.18 735.821L1570.74 736.134ZM1582.14 744.918C1580.51 745.545 1578.23 746.173 1578.23 748.682C1578.23 750.564 1579.86 751.819 1581.81 751.819C1582.79 751.819 1584.09 751.505 1585.07 750.878C1588 748.996 1588.33 746.173 1588.33 743.036L1582.14 744.918Z" fill="#0073FF"></path>
<path d="M1616.68 730.172C1617.65 729.231 1618.63 728.29 1619.93 727.976C1621.56 727.349 1623.52 726.721 1625.47 726.721C1627.43 726.721 1629.38 727.035 1631.01 727.976C1634.27 729.544 1635.25 732.368 1635.25 737.073V757.463H1626.12V740.524C1626.12 738.955 1626.12 737.387 1625.8 736.132C1625.15 734.564 1623.52 733.622 1621.56 733.936C1616.68 733.936 1616.68 737.7 1616.68 741.465V757.777H1607.55V727.976H1616.68V730.172Z" fill="#0073FF"></path>
<path d="M1352.43 737.702H1363.19C1364.16 737.702 1364.82 737.075 1364.82 736.134C1364.82 735.82 1364.82 735.82 1364.82 735.506L1346.24 686.884C1345.92 686.257 1345.59 685.943 1344.94 685.943H1334.19C1333.21 685.943 1332.56 686.57 1332.56 687.511C1332.56 687.825 1332.56 687.825 1332.56 688.139L1351.13 737.075C1351.13 737.388 1351.78 737.702 1352.43 737.702Z" fill="#0073FF"></path>
<path d="M1350.48 789.461H1361.23C1362.21 789.461 1362.86 788.834 1362.86 787.893C1362.86 787.579 1362.86 787.579 1362.86 787.266L1324.41 686.884C1324.09 686.257 1323.44 685.943 1322.78 685.943H1312.03C1311.06 685.943 1310.4 686.57 1310.4 687.511C1310.4 687.825 1310.4 687.825 1310.4 688.139L1348.85 788.52C1349.18 789.148 1349.83 789.461 1350.48 789.461Z" fill="#0073FF"></path>
<path d="M1329.3 789.465H1340.05C1341.03 789.465 1341.68 788.837 1341.68 787.896C1341.68 787.582 1341.68 787.582 1341.68 787.269L1323.11 738.646C1322.78 738.019 1322.46 737.705 1321.81 737.705H1311.06C1310.08 737.705 1309.43 738.333 1309.43 739.274C1309.43 739.587 1309.43 739.587 1309.43 739.901L1328 788.523C1328 789.151 1328.65 789.465 1329.3 789.465Z" fill="#0073FF"></path>
<path d="M1353.74 688.139L1362.53 711.038C1362.86 711.666 1363.19 711.979 1363.84 711.979H1374.59C1375.57 711.979 1376.22 711.352 1376.22 710.411C1376.22 710.097 1376.22 710.097 1376.22 709.783L1367.42 686.884C1367.1 686.257 1366.77 685.943 1366.12 685.943H1355.37C1354.39 685.943 1353.74 686.57 1353.74 687.511C1353.74 687.825 1353.74 687.825 1353.74 688.139Z" fill="#0073FF"></path>
<path d="M1309.43 789.461H1320.18C1321.16 789.461 1321.81 788.833 1321.81 787.892C1321.81 787.579 1321.81 787.579 1321.81 787.265L1313.01 764.365C1312.68 763.738 1312.03 763.424 1311.38 763.424H1300.63C1299.65 763.424 1299 764.052 1299 764.993C1299 765.306 1299 765.306 1299 765.62L1307.8 788.52C1308.12 789.147 1308.77 789.461 1309.43 789.461Z" fill="#0073FF"></path>
<path d="M328.911 955.764V945.37C335.668 950.081 343.046 952.175 350.114 952.175C355.628 952.175 359.045 949.782 359.045 944.772C359.045 939.763 354.463 938.865 348.017 937.968C336.678 936.173 328.057 934.155 328.057 921.967C328.057 910.153 336.678 903.947 349.259 903.947C357.569 903.947 364.947 906.339 368.908 908.657V918.452C363.394 914.938 355.705 912.844 348.949 912.844C343.435 912.844 339.707 915.237 339.707 920.247C339.707 924.958 343.978 926.154 350.502 927.051C361.53 928.846 370.772 930.865 370.772 942.753C370.772 954.867 362.462 961.073 350.191 961.073C340.872 961.746 334.115 959.353 328.911 955.764ZM387.237 935.65C387.858 929.145 390.887 925.032 396.479 925.257C401.372 925.257 404.789 928.547 405.1 935.65H387.237ZM375.898 939.837C375.898 954.343 385.14 961.746 399.275 961.447C406.342 961.447 411.235 959.951 414.652 958.157V949.857C410.381 951.651 406.342 952.848 401.76 952.848C393.139 952.848 387.936 949.034 387.315 942.23H416.205V937.818C416.205 923.911 408.827 917.107 396.557 917.107C384.907 917.107 375.976 925.705 375.976 938.716V939.837M448.436 933.033C448.436 937.146 446.261 940.735 440.747 940.735C435.544 940.735 433.058 937.445 433.058 933.033C433.058 928.621 435.544 925.331 440.747 925.331C445.951 925.331 448.436 928.547 448.436 933.033ZM452.785 964.961C452.785 968.251 448.514 969.971 441.446 970.27H438.65C433.757 970.27 430.03 969.372 430.03 966.456C430.03 963.465 433.68 961.447 439.272 961.447H445.718C450.3 961.447 452.785 962.045 452.785 964.961ZM418.924 969.672C418.924 975.878 428.787 977.373 436.476 977.672H438.961C455.581 977.672 464.202 971.765 464.202 962.867C464.202 955.465 458.687 952.773 449.135 952.773H437.718C433.757 952.773 432.204 952.175 432.204 950.679C432.204 948.287 436.165 947.165 438.961 947.165H440.825C451.62 947.165 459.542 941.557 459.542 932.659C459.542 930.566 458.61 928.248 457.367 926.752H464.745V918.153H440.747C430.884 918.153 422.03 923.462 422.03 932.958C422.03 939.164 425.447 943.875 432.204 945.969C424.826 948.062 421.72 950.978 421.72 954.567C421.72 957.558 423.894 959.876 430.651 960.774C422.652 962.568 418.924 965.858 418.924 969.672ZM469.949 960.549H481.598V935.426C481.598 933.332 482.22 931.612 483.152 930.117C484.394 928.023 486.569 926.004 490.219 926.004C495.112 926.004 497.286 928.995 497.286 935.501V960.624H508.625L508.936 935.501C508.936 933.706 509.557 931.687 510.489 930.192C511.732 928.098 514.139 926.079 517.557 926.079C522.449 926.079 524.624 929.369 524.624 935.276V960.699H536.273V932.584C536.273 921.967 531.381 917.181 523.381 917.181C516.625 917.181 511.732 921.294 508.004 927.799C507.383 921.593 503.422 917.181 496.665 917.181C489.598 917.181 484.394 921.593 480.977 927.799V918.303H469.949V960.549ZM554.757 935.65C555.068 929.145 558.408 925.032 563.999 925.257C568.892 925.257 572.309 928.547 572.62 935.65H554.757ZM543.419 939.837C543.419 954.343 552.35 961.746 566.795 961.447C573.863 961.447 578.756 959.951 582.173 958.157V949.857C577.901 951.651 573.863 952.848 569.281 952.848C560.66 952.848 555.456 949.034 554.835 942.23H583.726V937.818C583.726 923.911 576.348 917.107 564.077 917.107C552.428 917.107 543.496 925.705 543.496 938.716V939.837M591.104 960.549H602.754V935.65C602.754 933.556 603.064 931.837 604.307 930.341C605.55 927.649 608.268 926.229 611.685 926.229C616.578 926.229 619.063 929.519 619.063 935.127V960.549H630.713V932.435C630.713 922.041 626.13 917.032 617.82 917.032C610.442 917.032 605.55 921.144 602.132 927.649V918.153H591.104V960.549ZM643.605 948.66C643.605 957.558 647.566 961.671 657.429 961.372C661.079 961.372 664.807 960.474 666.36 959.876V952.175C665.428 952.474 663.254 952.773 662.089 952.773C657.817 952.773 655.332 951.277 655.332 946.866V926.752H666.982V918.153H655.643V904.844H645.158L644.537 913.144C644.226 917.854 641.741 918.751 639.023 918.751H635.605V927.051H643.605V948.66ZM334.426 891.31H339.008V877.103H344.211V873.589H329.455V877.103H334.348V891.31H334.426ZM352.832 891.31H358.967L361.763 878.599L364.559 891.31H370.694L374.655 873.589H370.073L366.967 886.898L364.171 873.589H358.657L355.861 886.898L353.065 873.589H348.483L352.832 891.31ZM379.936 891.31H384.519V873.589H379.936V891.31ZM391.586 891.31H403.546V887.497H396.168V873.589H391.586V891.31ZM409.138 891.31H413.72V873.589H409.138V891.31ZM431.816 882.412C431.816 886.225 430.263 888.02 428.166 888.02C425.991 888.02 424.515 886.525 424.515 882.412V882.113C424.515 878.001 425.758 876.505 428.166 876.505C430.34 876.505 431.816 878.3 431.816 882.412ZM419.545 882.412C419.545 888.319 422.652 891.609 427.855 891.609C433.058 891.609 436.476 888.095 436.476 882.412V882.113C436.476 876.206 433.058 872.916 428.166 872.916C422.962 872.916 419.545 876.43 419.545 882.113V882.412Z" fill="#25C365"></path>
<path d="M289.847 911.424H241.307C239.444 911.424 237.89 909.928 237.89 908.134V902.526C237.89 900.731 239.444 899.236 241.307 899.236H290.158C292.022 899.236 293.575 900.731 293.575 902.526V908.134C293.187 909.928 291.711 911.424 289.847 911.424ZM252.957 935.052C254.821 935.052 256.374 933.557 256.607 932.061V926.453C256.607 924.659 255.054 923.163 253.19 923.163H204.417C202.553 923.163 201 924.659 201 926.154V931.762C201 933.557 202.553 935.052 204.417 935.052H252.957ZM219.484 943.95C216.067 943.95 213.349 946.567 213.349 949.857C213.349 953.147 216.067 955.764 219.484 955.764C222.901 955.764 225.619 953.147 225.619 949.857C225.619 946.567 222.824 943.95 219.484 943.95ZM274.781 878.823C271.363 878.823 268.645 881.44 268.645 884.73C268.645 888.02 271.363 890.637 274.781 890.637C278.198 890.637 280.916 888.02 280.916 884.73C280.916 881.515 278.198 878.823 274.781 878.823ZM247.132 952.848C243.715 952.848 240.375 952.25 237.269 951.352C235.716 951.053 234.162 951.651 233.619 953.147L231.444 958.755C230.823 960.25 231.755 962.045 233.619 962.568C237.89 964.064 242.55 964.662 247.132 964.662C267.092 964.662 284.333 953.147 292.022 936.547C292.643 935.052 292.022 933.033 290.158 932.435L284.333 930.341C282.78 929.743 281.227 930.341 280.683 931.837C274.781 944.249 262.199 952.848 247.132 952.848ZM247.132 881.814C250.549 881.814 253.889 882.412 256.996 883.309C258.549 883.609 260.102 883.01 260.646 881.515L262.82 875.907C263.442 874.412 262.51 872.617 260.646 872.094C256.374 870.598 251.714 870 247.132 870C227.173 870 209.931 881.515 202.243 898.114C201.621 899.61 202.243 901.629 204.107 902.227L209.931 904.321C211.485 904.919 213.038 904.321 213.582 902.825C219.484 890.413 232.065 881.814 247.132 881.814Z" fill="#25C365"></path>
<rect x="47" y="37" width="1820" height="607" fill="url(#pattern0_268_10)"></rect>
<path d="M1420.18 888.143H1426.67V946.605H1420.18V941.449H1420.02C1417.58 944.638 1413.69 947.745 1407.03 947.745C1396.64 947.745 1388.36 939.487 1388.36 925.752C1388.36 912.016 1396.64 903.758 1407.03 903.758C1413.69 903.758 1417.58 906.702 1420.02 910.3H1420.18V888.143ZM1420.18 925.752C1420.18 915.942 1415.39 909.482 1407.68 909.482C1399.15 909.482 1394.85 917.576 1394.85 925.752C1394.85 933.928 1399.15 942.022 1407.68 942.022C1415.39 942.022 1420.18 935.561 1420.18 925.752Z" fill="#030615"></path>
<path d="M1450.91 909.481C1443.03 909.481 1440.43 911.77 1440.03 917.821H1433.53C1433.94 909.808 1438.89 903.758 1450.91 903.758C1458.78 903.758 1465.84 906.865 1465.84 916.912V937.189C1465.84 940.46 1466.42 942.258 1470.55 941.767V946.347C1469.33 946.802 1468.04 947.023 1466.74 946.999C1462.84 946.999 1460.49 945.938 1459.35 941.357H1459.18C1456.58 945.283 1451.95 947.736 1445.14 947.736C1436.77 947.736 1431.49 942.913 1431.49 935.88C1431.49 926.397 1438.47 923.945 1449.2 921.901C1456.18 920.592 1459.36 919.692 1459.36 915.523C1459.35 912.261 1457.56 909.481 1450.91 909.481ZM1459.35 930.492V923.544C1458.13 924.769 1454.15 925.915 1449.77 926.815C1441.73 928.531 1437.99 930.574 1437.99 935.561C1437.99 939.653 1440.42 942.021 1445.79 942.021C1453.51 942.021 1459.35 938.505 1459.35 930.492Z" fill="#030615"></path>
<path d="M1503.29 904.904H1509.79V944.31C1509.79 955.418 1502.81 961.071 1491.44 961.071C1480.08 961.071 1473.34 955.02 1472.69 947.917H1479.2C1480.02 952.167 1483.43 955.356 1491.14 955.356C1498.85 955.356 1503.31 952.004 1503.31 944.248V937.934H1503.15C1500.72 941.53 1496.82 944.474 1490 944.474C1479.77 944.474 1471.49 937.853 1471.49 924.117C1471.49 910.381 1479.77 903.758 1490 903.758C1496.82 903.758 1500.72 906.865 1503.15 910.054H1503.31L1503.29 904.904ZM1503.29 924.117C1503.29 914.304 1498.5 909.481 1490.79 909.481C1482.27 909.481 1477.97 915.941 1477.97 924.117C1477.97 932.293 1482.27 938.75 1490.79 938.75C1498.52 938.75 1503.29 933.927 1503.29 924.117Z" fill="#030615"></path>
<path d="M1549.7 935.155C1549.7 942.755 1542.8 947.744 1533.38 947.744C1520.72 947.744 1514.87 941.694 1514.47 932.702H1520.96C1521.37 937.362 1523 942.021 1533.38 942.021C1540.45 942.021 1543.21 938.341 1543.21 935.561C1543.21 929.513 1537.77 929.186 1531.84 927.712C1525.51 926.16 1516.09 925.424 1516.09 915.614C1516.09 909.072 1521.85 903.758 1531.6 903.758C1541.91 903.758 1547.43 909.645 1548.08 916.839H1541.58C1540.93 913.652 1539.39 909.481 1531.6 909.481C1525.75 909.481 1522.6 911.852 1522.6 915.123C1522.6 920.028 1528.2 920.437 1533.97 921.828C1541.34 923.626 1549.7 924.851 1549.7 935.155Z" fill="#030615"></path>
<path d="M1571.65 910.627H1563.53V935.725C1563.53 940.469 1566.14 941.279 1571.65 940.878V946.605C1570.05 946.942 1568.42 947.107 1566.78 947.096C1561.27 947.096 1557.04 944.889 1557.04 936.385V910.633H1550.94V904.904H1557.04V891.004H1563.53V904.904H1571.66L1571.65 910.627Z" fill="#030615"></path>
<path d="M1606.17 933.763H1612.66C1610.55 941.53 1604.63 947.744 1594.32 947.744C1581.73 947.744 1574.1 938.832 1574.1 925.751C1574.1 911.852 1581.89 903.758 1593.99 903.758C1606.98 903.758 1613.31 912.67 1613.31 927.467H1580.6C1580.6 934.991 1585.06 942.021 1594.07 942.021C1602.35 942.021 1605.44 936.625 1606.17 933.763ZM1580.6 921.758H1606.82C1606.82 915.052 1601.79 909.481 1593.99 909.481C1586.2 909.481 1580.6 915.035 1580.6 921.758Z" fill="#030615"></path>
<path d="M1640.1 904.003V910.545H1639.94C1630.94 909.084 1624.68 915.45 1624.68 924.363V946.605H1618.18V904.904H1624.68V913.161H1624.84C1627.03 907.684 1630.35 903.758 1636.29 903.758C1637.56 903.744 1638.84 903.826 1640.1 904.003Z" fill="#030615"></path>
<path d="M1318.49 958.069C1318.49 958.483 1318.58 958.892 1318.75 959.271C1318.91 959.65 1319.15 959.991 1319.45 960.272C1319.75 960.553 1320.11 960.768 1320.5 960.904C1320.89 961.04 1321.3 961.094 1321.71 961.063C1337.28 959.94 1351.98 948.844 1356.67 931.513C1356.92 930.516 1357.66 930.016 1358.65 930.016C1359.16 930.037 1359.64 930.258 1359.98 930.632C1360.33 931.005 1360.52 931.502 1360.5 932.013C1360.5 935.877 1355.57 945.977 1348.52 951.837C1348.16 952.142 1347.87 952.524 1347.68 952.956C1347.49 953.388 1347.39 953.858 1347.41 954.331C1347.41 954.716 1347.5 955.095 1347.65 955.448C1347.8 955.8 1348.02 956.118 1348.3 956.385C1348.57 956.651 1348.9 956.86 1349.25 957C1349.61 957.139 1349.99 957.207 1350.37 957.198C1350.99 957.198 1351.98 956.824 1353.22 955.702C1358.15 951.212 1367.55 938.619 1367.55 924.778C1367.55 904.486 1351.97 887 1330.23 887C1310.83 887 1294.03 902.96 1294.03 921.414C1294.03 933.632 1303.67 942.858 1316.39 942.858C1326.16 942.858 1335.18 935.877 1337.65 926.275C1337.89 925.278 1338.63 924.778 1339.62 924.778C1340.13 924.799 1340.61 925.02 1340.96 925.393C1341.3 925.767 1341.49 926.263 1341.48 926.775C1341.48 931.139 1333.32 946.359 1316.76 946.359C1312.81 946.359 1307.87 945.237 1304.41 943.24C1303.94 943.014 1303.44 942.887 1302.92 942.866C1302.53 942.851 1302.14 942.918 1301.77 943.063C1301.4 943.208 1301.07 943.428 1300.79 943.71C1300.51 943.991 1300.3 944.327 1300.15 944.697C1300.01 945.067 1299.94 945.463 1299.96 945.86C1299.98 946.368 1300.12 946.864 1300.38 947.3C1300.64 947.737 1301 948.099 1301.44 948.353C1306.01 950.984 1311.45 952.343 1317.01 952.343C1330.85 952.343 1343.45 942.866 1347.16 928.903C1347.41 927.906 1348.15 927.406 1349.14 927.406C1349.64 927.427 1350.12 927.648 1350.47 928.021C1350.82 928.395 1351 928.891 1350.99 929.403C1350.99 935.138 1340.86 953.591 1321.34 955.088C1320.58 955.144 1319.87 955.48 1319.35 956.03C1318.82 956.581 1318.52 957.307 1318.49 958.069Z" fill="#4F43DD"></path>
<path d="M1337.84 910.318C1340.5 910.298 1343.12 911.04 1345.38 912.458C1345.61 911.197 1345.74 909.919 1345.76 908.637C1345.76 902.718 1341.28 897.416 1335.82 897.416C1331.58 897.416 1328.93 900.955 1328.93 905.328C1328.91 907.691 1329.74 909.982 1331.25 911.783C1333.31 910.795 1335.56 910.294 1337.84 910.318Z" fill="white"></path>
<path d="M1350.62 931.762C1351.38 929.154 1351.71 927.345 1351.71 926.17C1351.69 925.663 1351.47 925.183 1351.11 924.832C1350.74 924.48 1350.26 924.283 1349.75 924.281C1349.28 924.29 1348.83 924.457 1348.47 924.755C1348.1 925.054 1347.85 925.466 1347.74 925.927C1347.53 926.784 1347.09 929.105 1346.66 930.578C1346.84 930.026 1347 929.466 1347.15 928.897C1347.4 927.898 1348.14 927.4 1349.13 927.4C1349.63 927.42 1350.11 927.641 1350.46 928.014C1350.81 928.387 1350.99 928.883 1350.98 929.394C1350.96 930.198 1350.83 930.995 1350.6 931.765L1350.62 931.762Z" fill="#352D8E"></path>
<path d="M1361.12 929.037C1361.1 928.53 1360.88 928.052 1360.52 927.7C1360.16 927.349 1359.67 927.152 1359.17 927.148C1358.7 927.158 1358.25 927.325 1357.88 927.623C1357.52 927.921 1357.26 928.333 1357.16 928.794C1356.95 929.671 1356.5 932.027 1356.06 933.497H1356.08C1356.29 932.843 1356.49 932.179 1356.66 931.504C1356.91 930.504 1357.65 930.007 1358.64 930.007C1359.14 930.027 1359.62 930.248 1359.97 930.621C1360.32 930.994 1360.5 931.49 1360.49 932.001C1360.47 932.621 1360.39 933.238 1360.24 933.839C1360.85 931.664 1361.12 930.092 1361.12 929.037Z" fill="#352D8E"></path>
<path d="M1337.84 910.318C1339.16 910.315 1340.48 910.493 1341.76 910.846C1342.43 909.926 1342.76 908.8 1342.71 907.659C1342.65 906.519 1342.2 905.432 1341.45 904.583C1340.69 903.735 1339.66 903.175 1338.54 902.998C1337.42 902.822 1336.28 903.04 1335.3 903.615L1337.33 906.982L1333.52 905.325C1333.01 906.162 1332.75 907.135 1332.78 908.12C1332.81 909.104 1333.13 910.058 1333.7 910.861C1335.05 910.495 1336.44 910.312 1337.84 910.318Z" fill="#030615"></path>
<path d="M1308.54 931.989C1310.14 931.989 1311.44 930.68 1311.44 929.066C1311.44 927.451 1310.14 926.143 1308.54 926.143C1306.93 926.143 1305.63 927.451 1305.63 929.066C1305.63 930.68 1306.93 931.989 1308.54 931.989Z" fill="#352D8E"></path>
<path d="M1308.54 920.297C1310.14 920.297 1311.44 918.989 1311.44 917.374C1311.44 915.759 1310.14 914.451 1308.54 914.451C1306.93 914.451 1305.63 915.759 1305.63 917.374C1305.63 918.989 1306.93 920.297 1308.54 920.297Z" fill="#352D8E"></path>
<path d="M1302.73 926.143C1304.34 926.143 1305.63 924.834 1305.63 923.22C1305.63 921.605 1304.34 920.297 1302.73 920.297C1301.13 920.297 1299.83 921.605 1299.83 923.22C1299.83 924.834 1301.13 926.143 1302.73 926.143Z" fill="#352D8E"></path>
<path d="M1315.79 942.852H1316.37C1326.13 942.852 1335.15 935.871 1337.62 926.269C1337.87 925.272 1338.61 924.772 1339.6 924.772C1340.11 924.793 1340.59 925.014 1340.93 925.388C1341.28 925.761 1341.47 926.257 1341.45 926.769C1341.41 927.789 1341.18 928.793 1340.78 929.73C1340.85 929.621 1340.91 929.507 1340.96 929.388C1341.69 927.697 1342.07 925.872 1342.07 924.027C1342.07 921.159 1340.1 919.288 1337.26 919.288C1332.3 919.288 1331.31 923.644 1329.22 928.3C1327.05 933.135 1323.07 938.365 1313.04 938.365C1302.61 938.365 1291.89 931.007 1294.5 916.047C1294.53 915.86 1294.56 915.693 1294.58 915.538C1294.2 917.471 1294 919.437 1294 921.408C1294.03 933.451 1303.37 942.571 1315.79 942.852Z" fill="#352D8E"></path>
<rect x="725" y="861" width="470" height="126" fill="url(#pattern1_268_10)"></rect>
<defs>
<pattern id="pattern0_268_10" patternContentUnits="objectBoundingBox" width="1" height="1">
<use xlink:href="#image0_268_10" transform="matrix(0.00166758 0 0 0.005 -0.000274725 0)"></use>
</pattern>
<pattern id="pattern1_268_10" patternContentUnits="objectBoundingBox" width="1" height="1">
<use xlink:href="#image1_268_10" transform="matrix(0.0005 0 0 0.0018622 0 -1.34451)"></use>
</pattern>
<image id="image0_268_10" width="600" height="200" preserveAspectRatio="none"></image>
<image id="image1_268_10" width="2000" height="2000" preserveAspectRatio="none"></image>
</defs>
</svg>