<svg width="1000" height="1000" viewBox="0 0 1000 1000" fill="none" xmlns="http://www.w3.org/2000/svg">
<rect width="1000" height="1000" fill="#4F60FF"/>
<g clip-path="url(#clip0_2970_491)">
<path d="M649.384 443.095H526.99V621.902H557.12V473.265H649.384V443.095Z" fill="white" stroke="white" stroke-width="1.75" stroke-miterlimit="10"/>
<path d="M298.797 493.474L254.867 621.852H227.752L167.041 443.162H199.18L242.39 573.687L287.073 443.162H310.638L355.287 573.687L398.464 443.162H430.955L370.243 621.886H343.112L298.797 493.474Z" fill="white" stroke="white" stroke-width="1.75" stroke-miterlimit="10"/>
<path d="M491.382 443.095H460.666V621.902H491.382V443.095Z" fill="white" stroke="white" stroke-width="1.75" stroke-miterlimit="10"/>
<path d="M746.9 625.524C694.848 625.524 657.048 585.896 657.048 532.716C657.048 480.577 691.984 439.892 747.604 439.892C803.575 439.892 837.456 485.574 833.169 540.917H688.065C689.137 573.402 715.163 597.685 747.252 597.685C769.359 597.685 788.251 589.116 798.953 567.7H830.322C821.412 599.128 792.17 625.524 746.9 625.524ZM689.489 516.65H800.728C795.017 483.445 772.927 467.026 746.532 467.026C720.841 467.026 695.551 481.298 689.489 516.65Z" fill="white" stroke="white" stroke-width="1.75" stroke-miterlimit="10"/>
<path d="M476.026 413.663C486.561 413.663 495.102 405.111 495.102 394.561C495.102 384.012 486.561 375.459 476.026 375.459C465.491 375.459 456.95 384.012 456.95 394.561C456.95 405.111 465.491 413.663 476.026 413.663Z" fill="white" stroke="white" stroke-width="1.75" stroke-miterlimit="10"/>
</g>
<defs>
<clipPath id="clip0_2970_491">
<rect width="670" height="253" fill="white" transform="translate(165 374)"/>
</clipPath>
</defs>
</svg>
